<?xml version="1.0" encoding="utf-8"?>
<!-- Generator: Adobe Adobe Illustrator 24.2.0, SVG Export Plug-In . SVG Version: 6.00 Build 0)  -->
<svg version="1.1" id="Calque_1" xmlns="http://www.w3.org/2000/svg" xmlns:xlink="http://www.w3.org/1999/xlink" x="0px" y="0px"
	 width="754px" height="654px" viewBox="0 0 754 654" style="enable-background:new 0 0 754 654;" xml:space="preserve">
<style type="text/css">
	.st0{fill:#E0E0E0;}
	.st1{fill:#FFFFFF;}
	.st2{opacity:0.8784;}
	.st3{fill:url(#SVGID_1_);}
	.st4{fill:url(#SVGID_2_);}
	.st5{fill:url(#SVGID_3_);}
	.st6{fill:url(#SVGID_4_);}
	.st7{fill:url(#SVGID_5_);}
	.st8{fill:url(#SVGID_6_);}
	.st9{fill:#FFFFFF;stroke:#E73237;stroke-miterlimit:10;}
	.st10{stroke:#E73237;stroke-miterlimit:10;}
	.st11{fill:url(#SVGID_7_);}
	.st12{fill:url(#SVGID_8_);}
	.st13{fill:url(#SVGID_9_);}
	.st14{fill:url(#SVGID_10_);}
	.st15{fill:url(#SVGID_11_);}
	.st16{fill:url(#SVGID_12_);}
	.st17{fill:url(#SVGID_13_);}
	.st18{fill:url(#SVGID_14_);}
	.st19{fill:url(#SVGID_15_);}
	.st20{fill:#FFB208;}
	.st21{fill:#FFFFFF;stroke:#FFAF00;stroke-miterlimit:10;}
	.st22{fill:#FFFFFF;stroke:#FFB002;stroke-miterlimit:10;}
	.st23{fill:url(#SVGID_16_);}
	.st24{fill:url(#SVGID_17_);}
	.st25{fill:url(#SVGID_18_);}
	.st26{fill:url(#SVGID_19_);}
	.st27{fill:url(#SVGID_20_);}
	.st28{fill:url(#SVGID_21_);}
	.st29{fill:url(#SVGID_22_);}
	.st30{fill:url(#SVGID_23_);}
	.st31{fill:url(#SVGID_24_);}
	.st32{fill:#F0F0F0;}
</style>
<g>
	<linearGradient id="SVGID_1_" gradientUnits="userSpaceOnUse" x1="186.1518" y1="408.5936" x2="464.5079" y2="283.3824">
		<stop  offset="0" style="stop-color:#FD6E00"/>
		<stop  offset="1" style="stop-color:#D90B5B"/>
	</linearGradient>
	<path class="st3" d="M382.77,428.09c-8.61,14.41-16.71,28.87-25.68,42.74c-6.42,9.93-12.75,20.11-22.75,27.1
		c-8.44,5.9-17.87,9.19-27.77,9.28c-15.5,0.14-28.98-5.7-39.56-17.77c-4.98-5.68-8.29-12.43-12.05-18.9
		c-6.82-11.72-13.61-23.45-20.36-35.21c-5.05-8.8-9.95-17.69-15-26.49c-6.8-11.86-13.71-23.65-20.53-35.5
		c-3.19-5.55-6.22-11.18-9.38-16.74c-5.67-9.96-11.33-19.93-17.11-29.83c-5.74-9.83-8.18-20.51-7.66-31.83
		c1.14-25,18.61-47.39,43.27-51.64c16.84-2.9,31.2,1.67,43.85,13.08c4.14,3.73,7.42,8.03,10.16,12.86
		c6.8,11.99,13.62,23.97,20.45,35.95c5.9,10.34,11.84,20.66,17.76,31c1.93,3.37,2.82,3.36,4.85-0.04
		c10.27-17.22,20.54-34.45,30.83-51.66c7.58-12.67,15.17-25.33,22.78-37.99c9.58-15.93,23.12-26.25,41.15-29.95
		c15.73-3.23,30.18,0.24,43.2,9.69c9.68,7.03,16.14,16.51,19.68,28.13c5.31,17.43,3.15,33.9-5.94,49.48
		c-7.45,12.76-14.87,25.54-22.54,38.17c-10.06,16.58-20.07,33.19-29.89,49.92C397.46,403.99,390.13,415.9,382.77,428.09z"/>
	<linearGradient id="SVGID_2_" gradientUnits="userSpaceOnUse" x1="425.0053" y1="138.0076" x2="572.5748" y2="127.8628">
		<stop  offset="0" style="stop-color:#FD6E00"/>
		<stop  offset="1" style="stop-color:#D90B5B"/>
	</linearGradient>
	<path class="st4" d="M458.22,168.84c-5.72-8.64-8.84-18.04-9.97-28.06c-1.02-8.96-0.65-17.94,1.82-26.69
		c5.2-18.44,15.55-32.71,32.47-41.63c16.54-8.72,33.61-9.06,50.65-2.38c12.81,5.02,22.54,14.2,29.82,26.21
		c6.66,10.99,9.95,23.03,9.86,35.69c-0.11,15.61-4.46,30.04-14.3,42.53c-10.42,13.23-23.54,21.65-39.99,23.76
		c-17.44,2.23-33.4-2-47.09-13.73C466.31,180.1,461.65,175.17,458.22,168.84z"/>
	<linearGradient id="SVGID_3_" gradientUnits="userSpaceOnUse" x1="449.4611" y1="421.8559" x2="566.673" y2="393.3718">
		<stop  offset="0" style="stop-color:#FD6E00"/>
		<stop  offset="1" style="stop-color:#D90B5B"/>
	</linearGradient>
	<path class="st5" d="M552.41,335.31c0.89,4.47,0.8,8.69,0.8,12.91c-0.01,40.68,0.01,81.37,0,122.05c0,6.17-1.08,12.2-4.27,17.81
		c-5.47,9.63-14.6,15.47-27.13,18.19c-13.98,3.04-26.17,0.13-36.92-7.05c-8.6-5.75-13.58-13.53-13.6-22.83
		c-0.12-46.35-0.07-92.7-0.05-139.05c0.01-14.63,16.06-28.98,33.74-30.56c9.46-0.84,18.49-0.18,26.91,3.69
		C543.63,315.85,550.3,324.13,552.41,335.31z"/>
</g>
</svg>
