<svg xmlns="http://www.w3.org/2000/svg" xmlns:xlink="http://www.w3.org/1999/xlink" width="1920" zoomAndPan="magnify" viewBox="0 0 1440 809.999993" height="1080" preserveAspectRatio="xMidYMid meet" version="1.2"><defs><clipPath id="c3661f2fc3"><path d="M 681.753906 341.054688 L 790.503906 341.054688 L 790.503906 449.804688 L 681.753906 449.804688 Z M 681.753906 341.054688 "/></clipPath></defs><g id="ea68d4ee89"><g style="fill:#15b5b0;fill-opacity:1;"><g transform="translate(428.147532, 360.161075)"><path style="stroke:none" d="M 53.8125 -58.578125 C 55.65625 -58.742188 56.492188 -58.019531 56.328125 -56.40625 C 56.210938 -55.625 56.179688 -54.851562 56.234375 -54.09375 C 56.296875 -53.34375 56.351562 -52.578125 56.40625 -51.796875 C 56.457031 -51.578125 56.457031 -51.367188 56.40625 -51.171875 C 56.351562 -50.972656 56.296875 -50.765625 56.234375 -50.546875 C 51.492188 -50.492188 46.75 -50.519531 42 -50.625 C 37.257812 -50.738281 32.519531 -50.570312 27.78125 -50.125 C 27.894531 -47.613281 27.878906 -45.019531 27.734375 -42.34375 C 27.597656 -39.664062 27.671875 -37.046875 27.953125 -34.484375 C 28.898438 -34.585938 29.847656 -34.570312 30.796875 -34.4375 C 31.742188 -34.300781 32.691406 -34.285156 33.640625 -34.390625 C 34.304688 -34.503906 34.972656 -34.5625 35.640625 -34.5625 C 36.316406 -34.5625 36.988281 -34.535156 37.65625 -34.484375 C 39.101562 -34.484375 40.566406 -34.523438 42.046875 -34.609375 C 43.523438 -34.691406 44.992188 -34.757812 46.453125 -34.8125 C 47.171875 -34.863281 47.878906 -34.90625 48.578125 -34.9375 C 49.273438 -34.96875 49.988281 -34.953125 50.71875 -34.890625 C 52 -34.785156 52.582031 -34.144531 52.46875 -32.96875 C 52.414062 -32.019531 52.398438 -31.082031 52.421875 -30.15625 C 52.453125 -29.238281 52.5 -28.304688 52.5625 -27.359375 C 52.5625 -26.359375 52.113281 -25.859375 51.21875 -25.859375 C 50.4375 -25.859375 49.640625 -25.84375 48.828125 -25.8125 C 48.023438 -25.789062 47.234375 -25.78125 46.453125 -25.78125 C 44.941406 -25.78125 43.445312 -25.75 41.96875 -25.6875 C 40.488281 -25.632812 38.992188 -25.582031 37.484375 -25.53125 C 36.929688 -25.46875 36.359375 -25.4375 35.765625 -25.4375 C 35.179688 -25.4375 34.585938 -25.4375 33.984375 -25.4375 L 27.78125 -25.4375 C 27.5625 -22.539062 27.535156 -19.640625 27.703125 -16.734375 C 27.867188 -13.835938 28.007812 -10.9375 28.125 -8.03125 C 28.457031 -7.8125 28.816406 -7.726562 29.203125 -7.78125 C 29.597656 -7.832031 29.988281 -7.832031 30.375 -7.78125 C 31.269531 -7.726562 32.160156 -7.6875 33.046875 -7.65625 C 33.941406 -7.625 34.8125 -7.640625 35.65625 -7.703125 C 36.769531 -7.804688 37.851562 -7.859375 38.90625 -7.859375 C 39.96875 -7.859375 41.03125 -7.945312 42.09375 -8.125 C 42.707031 -8.226562 43.363281 -8.253906 44.0625 -8.203125 C 44.757812 -8.148438 45.441406 -8.148438 46.109375 -8.203125 C 47.503906 -8.367188 48.898438 -8.453125 50.296875 -8.453125 C 51.691406 -8.453125 53.085938 -8.453125 54.484375 -8.453125 C 55.316406 -8.453125 56.148438 -8.546875 56.984375 -8.734375 C 57.828125 -8.929688 58.691406 -8.8125 59.578125 -8.375 L 59.578125 -2.09375 C 59.691406 -0.8125 59.132812 -0.222656 57.90625 -0.328125 C 56.507812 -0.390625 55.113281 -0.347656 53.71875 -0.203125 C 52.332031 -0.0664062 50.910156 -0.0234375 49.453125 -0.078125 C 47.671875 -0.191406 45.875 -0.21875 44.0625 -0.15625 C 42.25 -0.101562 40.445312 -0.0507812 38.65625 0 C 36.375 0.0507812 34.0625 0.078125 31.71875 0.078125 C 29.375 0.078125 27.03125 0.078125 24.6875 0.078125 C 24.46875 0.078125 23.925781 0.09375 23.0625 0.125 C 22.195312 0.15625 21.21875 0.195312 20.125 0.25 C 19.039062 0.300781 18.007812 0.34375 17.03125 0.375 C 16.050781 0.40625 15.335938 0.421875 14.890625 0.421875 C 13.835938 0.304688 12.789062 0.21875 11.75 0.15625 C 10.71875 0.101562 9.644531 0.078125 8.53125 0.078125 C 8.144531 0.078125 7.546875 0.117188 6.734375 0.203125 C 5.921875 0.285156 5.515625 0.242188 5.515625 0.078125 C 5.628906 -1.085938 5.671875 -2.269531 5.640625 -3.46875 C 5.617188 -4.664062 5.550781 -5.851562 5.4375 -7.03125 C 5.269531 -8.644531 5.269531 -10.316406 5.4375 -12.046875 C 5.550781 -12.890625 5.59375 -13.753906 5.5625 -14.640625 C 5.53125 -15.535156 5.515625 -16.429688 5.515625 -17.328125 C 5.515625 -18.046875 5.53125 -18.753906 5.5625 -19.453125 C 5.59375 -20.148438 5.550781 -20.863281 5.4375 -21.59375 C 5.382812 -22.707031 5.316406 -23.820312 5.234375 -24.9375 C 5.148438 -26.050781 5.109375 -27.164062 5.109375 -28.28125 C 5.109375 -29.457031 5.09375 -30.644531 5.0625 -31.84375 C 5.03125 -33.039062 5.015625 -34.226562 5.015625 -35.40625 C 5.078125 -36.570312 5.117188 -37.738281 5.140625 -38.90625 C 5.171875 -40.082031 5.210938 -41.253906 5.265625 -42.421875 C 5.378906 -46.390625 5.378906 -49.765625 5.265625 -52.546875 C 5.160156 -55.335938 5.078125 -57.015625 5.015625 -57.578125 C 5.128906 -57.691406 5.269531 -57.773438 5.4375 -57.828125 C 5.601562 -57.878906 5.71875 -57.960938 5.78125 -58.078125 C 6.164062 -58.191406 6.484375 -58.234375 6.734375 -58.203125 C 6.984375 -58.171875 7.304688 -58.15625 7.703125 -58.15625 C 10.316406 -58.269531 12.945312 -58.285156 15.59375 -58.203125 C 18.25 -58.117188 20.890625 -58.132812 23.515625 -58.25 C 24.460938 -58.300781 25.410156 -58.3125 26.359375 -58.28125 C 27.304688 -58.257812 28.226562 -58.273438 29.125 -58.328125 C 30.457031 -58.441406 31.804688 -58.457031 33.171875 -58.375 C 34.546875 -58.289062 35.898438 -58.300781 37.234375 -58.40625 C 38.523438 -58.519531 39.835938 -58.535156 41.171875 -58.453125 C 42.515625 -58.367188 43.851562 -58.382812 45.1875 -58.5 C 46.46875 -58.613281 47.78125 -58.65625 49.125 -58.625 C 50.46875 -58.59375 51.804688 -58.578125 53.140625 -58.578125 Z M 53.8125 -58.578125 "/></g></g><g style="fill:#15b5b0;fill-opacity:1;"><g transform="translate(497.437877, 360.161075)"><path style="stroke:none" d="M 34.734375 -44.6875 C 34.953125 -44.632812 35.160156 -44.609375 35.359375 -44.609375 C 35.554688 -44.609375 35.765625 -44.550781 35.984375 -44.4375 C 37.097656 -44.050781 38.210938 -43.660156 39.328125 -43.265625 C 40.441406 -42.878906 41.503906 -42.378906 42.515625 -41.765625 C 44.242188 -40.703125 45.722656 -39.429688 46.953125 -37.953125 C 48.179688 -36.472656 49.015625 -34.671875 49.453125 -32.546875 C 49.515625 -32.378906 49.546875 -32.195312 49.546875 -32 C 49.546875 -31.8125 49.546875 -31.632812 49.546875 -31.46875 C 49.597656 -31.351562 49.609375 -31.222656 49.578125 -31.078125 C 49.554688 -30.941406 49.546875 -30.765625 49.546875 -30.546875 C 48.148438 -30.546875 46.765625 -30.429688 45.390625 -30.203125 C 44.023438 -29.984375 42.617188 -29.988281 41.171875 -30.21875 C 40.953125 -30.4375 40.8125 -30.628906 40.75 -30.796875 C 40.363281 -32.359375 39.664062 -33.554688 38.65625 -34.390625 C 37.65625 -35.234375 36.429688 -35.847656 34.984375 -36.234375 C 33.804688 -36.566406 32.671875 -36.59375 31.578125 -36.3125 C 30.492188 -36.039062 29.476562 -35.515625 28.53125 -34.734375 C 26.53125 -33.054688 25.304688 -30.90625 24.859375 -28.28125 C 24.691406 -27.445312 24.523438 -26.609375 24.359375 -25.765625 C 24.191406 -24.929688 24.050781 -24.125 23.9375 -23.34375 C 23.707031 -21.84375 23.734375 -20.378906 24.015625 -18.953125 C 24.296875 -17.535156 24.628906 -16.128906 25.015625 -14.734375 C 25.296875 -13.835938 25.726562 -12.957031 26.3125 -12.09375 C 26.90625 -11.226562 27.644531 -10.488281 28.53125 -9.875 C 30.15625 -8.757812 31.941406 -8.203125 33.890625 -8.203125 C 35.679688 -8.148438 37.328125 -8.484375 38.828125 -9.203125 C 40.335938 -9.929688 41.757812 -10.828125 43.09375 -11.890625 C 43.488281 -12.222656 43.863281 -12.554688 44.21875 -12.890625 C 44.582031 -13.222656 45.046875 -13.5 45.609375 -13.71875 C 46.609375 -13.050781 47.523438 -12.269531 48.359375 -11.375 C 49.203125 -10.488281 50.070312 -9.65625 50.96875 -8.875 C 50.90625 -8.707031 50.859375 -8.566406 50.828125 -8.453125 C 50.804688 -8.335938 50.769531 -8.253906 50.71875 -8.203125 C 49.207031 -6.804688 47.65625 -5.46875 46.0625 -4.1875 C 44.476562 -2.90625 42.707031 -1.875 40.75 -1.09375 C 39.351562 -0.53125 37.890625 -0.140625 36.359375 0.078125 C 34.828125 0.304688 33.28125 0.5625 31.71875 0.84375 C 29.039062 1.34375 26.414062 1.328125 23.84375 0.796875 C 21.28125 0.265625 18.769531 -0.472656 16.3125 -1.421875 C 14.75 -2.035156 13.335938 -2.84375 12.078125 -3.84375 C 10.828125 -4.851562 9.644531 -5.972656 8.53125 -7.203125 C 7.976562 -7.867188 7.421875 -8.519531 6.859375 -9.15625 C 6.304688 -9.800781 5.890625 -10.570312 5.609375 -11.46875 C 5.160156 -13.25 4.710938 -15.046875 4.265625 -16.859375 C 3.816406 -18.671875 3.648438 -20.523438 3.765625 -22.421875 C 3.929688 -24.429688 4.25 -26.398438 4.71875 -28.328125 C 5.195312 -30.253906 5.992188 -32.109375 7.109375 -33.890625 C 8.054688 -35.398438 9.128906 -36.78125 10.328125 -38.03125 C 11.535156 -39.289062 12.835938 -40.453125 14.234375 -41.515625 C 15.398438 -42.347656 16.640625 -43 17.953125 -43.46875 C 19.265625 -43.945312 20.617188 -44.296875 22.015625 -44.515625 C 24.128906 -44.960938 26.242188 -45.210938 28.359375 -45.265625 C 30.484375 -45.328125 32.609375 -45.132812 34.734375 -44.6875 Z M 34.734375 -44.6875 "/></g></g><g style="fill:#15b5b0;fill-opacity:1;"><g transform="translate(561.03775, 360.161075)"><path style="stroke:none" d="M 24.859375 -59.25 C 25.078125 -59.082031 25.203125 -58.898438 25.234375 -58.703125 C 25.265625 -58.503906 25.28125 -58.320312 25.28125 -58.15625 C 25.28125 -56.375 25.289062 -54.585938 25.3125 -52.796875 C 25.34375 -51.015625 25.359375 -49.234375 25.359375 -47.453125 C 25.410156 -43.097656 25.394531 -38.828125 25.3125 -34.640625 C 25.226562 -30.460938 25.242188 -26.195312 25.359375 -21.84375 C 25.410156 -20.945312 25.4375 -20.035156 25.4375 -19.109375 C 25.4375 -18.191406 25.46875 -17.257812 25.53125 -16.3125 C 25.582031 -15.363281 25.660156 -14.429688 25.765625 -13.515625 C 25.878906 -12.597656 26.132812 -11.691406 26.53125 -10.796875 C 26.863281 -10.015625 27.53125 -9.484375 28.53125 -9.203125 C 29.925781 -8.816406 31.378906 -8.789062 32.890625 -9.125 C 33.441406 -9.238281 33.898438 -9.335938 34.265625 -9.421875 C 34.628906 -9.503906 34.925781 -9.429688 35.15625 -9.203125 C 35.207031 -8.035156 35.242188 -6.765625 35.265625 -5.390625 C 35.296875 -4.023438 35.257812 -2.757812 35.15625 -1.59375 C 34.757812 -1.03125 34.195312 -0.59375 33.46875 -0.28125 C 32.75 0.0195312 32.023438 0.222656 31.296875 0.328125 C 29.347656 0.722656 27.421875 0.972656 25.515625 1.078125 C 23.617188 1.191406 21.671875 1.164062 19.671875 1 C 18.273438 0.894531 16.960938 0.628906 15.734375 0.203125 C 14.503906 -0.210938 13.304688 -0.726562 12.140625 -1.34375 C 10.410156 -2.289062 9.023438 -3.503906 7.984375 -4.984375 C 6.953125 -6.460938 6.1875 -8.117188 5.6875 -9.953125 C 5.40625 -11.128906 5.265625 -12.300781 5.265625 -13.46875 C 5.265625 -14.644531 5.238281 -15.816406 5.1875 -16.984375 C 5.1875 -19.046875 5.210938 -21 5.265625 -22.84375 C 5.328125 -24.6875 5.300781 -26.613281 5.1875 -28.625 C 5.019531 -31.300781 5.003906 -33.960938 5.140625 -36.609375 C 5.285156 -39.265625 5.300781 -41.929688 5.1875 -44.609375 C 5.132812 -46.222656 5.09375 -47.820312 5.0625 -49.40625 C 5.03125 -51 5.015625 -52.578125 5.015625 -54.140625 C 4.960938 -54.921875 4.960938 -55.703125 5.015625 -56.484375 C 5.078125 -57.265625 5.132812 -57.992188 5.1875 -58.671875 C 5.632812 -59.109375 6.207031 -59.3125 6.90625 -59.28125 C 7.601562 -59.257812 8.226562 -59.25 8.78125 -59.25 C 10.40625 -59.25 12.023438 -59.207031 13.640625 -59.125 C 15.253906 -59.039062 16.84375 -59.054688 18.40625 -59.171875 C 19.519531 -59.222656 20.609375 -59.273438 21.671875 -59.328125 C 22.734375 -59.390625 23.796875 -59.363281 24.859375 -59.25 Z M 24.859375 -59.25 "/></g></g><g style="fill:#15b5b0;fill-opacity:1;"><g transform="translate(604.63722, 360.161075)"><path style="stroke:none" d="M 34.140625 -44.9375 C 36.765625 -44.882812 39.191406 -44.351562 41.421875 -43.34375 C 43.648438 -42.34375 45.71875 -41.035156 47.625 -39.421875 C 48.226562 -38.972656 48.796875 -38.492188 49.328125 -37.984375 C 49.859375 -37.484375 50.347656 -36.929688 50.796875 -36.328125 C 51.742188 -35.097656 52.425781 -33.796875 52.84375 -32.421875 C 53.257812 -31.054688 53.5 -29.648438 53.5625 -28.203125 C 53.613281 -25.578125 53.65625 -22.9375 53.6875 -20.28125 C 53.71875 -17.632812 53.703125 -15.003906 53.640625 -12.390625 C 53.585938 -10.660156 53.5625 -8.890625 53.5625 -7.078125 C 53.5625 -5.265625 53.644531 -3.488281 53.8125 -1.75 C 53.863281 -1.476562 53.875 -1.203125 53.84375 -0.921875 C 53.820312 -0.640625 53.671875 -0.332031 53.390625 0 C 51.210938 -0.21875 49.019531 -0.257812 46.8125 -0.125 C 44.613281 0.0078125 42.398438 0.078125 40.171875 0.078125 C 39.390625 -0.703125 38.71875 -1.535156 38.15625 -2.421875 C 37.601562 -3.316406 36.851562 -3.988281 35.90625 -4.4375 C 35.675781 -4.4375 35.476562 -4.363281 35.3125 -4.21875 C 35.144531 -4.082031 34.976562 -3.957031 34.8125 -3.84375 C 33.195312 -2.445312 31.453125 -1.375 29.578125 -0.625 C 27.710938 0.125 25.75 0.640625 23.6875 0.921875 C 21.726562 1.140625 19.769531 1.222656 17.8125 1.171875 C 15.863281 1.117188 13.972656 0.726562 12.140625 0 C 10.066406 -0.894531 8.347656 -2.082031 6.984375 -3.5625 C 5.617188 -5.039062 4.6875 -6.894531 4.1875 -9.125 C 3.238281 -13.3125 3.851562 -17.269531 6.03125 -21 C 7.082031 -22.789062 8.390625 -24.210938 9.953125 -25.265625 C 11.515625 -26.328125 13.273438 -27.140625 15.234375 -27.703125 C 19.242188 -28.816406 23.285156 -29.289062 27.359375 -29.125 C 28.140625 -29.125 28.894531 -29.082031 29.625 -29 C 30.351562 -28.914062 31.078125 -28.898438 31.796875 -28.953125 C 32.078125 -29.015625 32.441406 -29.015625 32.890625 -28.953125 C 33.335938 -28.898438 33.703125 -28.898438 33.984375 -28.953125 C 34.148438 -30.515625 33.851562 -31.828125 33.09375 -32.890625 C 32.34375 -33.953125 31.242188 -34.734375 29.796875 -35.234375 C 28.117188 -35.847656 26.507812 -36.082031 24.96875 -35.9375 C 23.4375 -35.800781 21.863281 -35.507812 20.25 -35.0625 C 19.082031 -34.78125 18.050781 -34.53125 17.15625 -34.3125 C 16.257812 -34.09375 15.253906 -33.675781 14.140625 -33.0625 C 13.753906 -32.832031 13.265625 -32.5625 12.671875 -32.25 C 12.085938 -31.945312 11.738281 -31.851562 11.625 -31.96875 C 11.351562 -32.1875 10.953125 -32.726562 10.421875 -33.59375 C 9.890625 -34.457031 9.34375 -35.445312 8.78125 -36.5625 C 8.226562 -37.6875 7.703125 -38.664062 7.203125 -39.5 C 7.472656 -40.113281 7.832031 -40.53125 8.28125 -40.75 C 8.726562 -40.976562 9.148438 -41.175781 9.546875 -41.34375 C 11.773438 -42.238281 14.03125 -42.960938 16.3125 -43.515625 C 18.601562 -44.078125 20.945312 -44.46875 23.34375 -44.6875 C 26.96875 -44.96875 30.566406 -45.050781 34.140625 -44.9375 Z M 34.3125 -20.921875 C 33.582031 -20.921875 32.882812 -20.90625 32.21875 -20.875 C 31.550781 -20.851562 30.910156 -20.785156 30.296875 -20.671875 C 27.835938 -20.109375 26.144531 -19.070312 25.21875 -17.5625 C 24.300781 -16.0625 23.957031 -14.222656 24.1875 -12.046875 C 24.351562 -10.992188 24.8125 -10.101562 25.5625 -9.375 C 26.320312 -8.644531 27.21875 -8.164062 28.25 -7.9375 C 29.28125 -7.71875 30.238281 -7.804688 31.125 -8.203125 C 32.414062 -8.703125 33.503906 -9.539062 34.390625 -10.71875 C 34.222656 -12.332031 34.164062 -13.988281 34.21875 -15.6875 C 34.28125 -17.394531 34.3125 -19.140625 34.3125 -20.921875 Z M 34.3125 -20.921875 "/></g></g><g style="fill:#15b5b0;fill-opacity:1;"><g transform="translate(669.157575, 360.161075)"><path style="stroke:none" d="M 22.671875 -55.40625 C 23.847656 -55.34375 25.078125 -55.378906 26.359375 -55.515625 C 27.640625 -55.660156 28.976562 -55.59375 30.375 -55.3125 L 30.375 -43.6875 C 31.769531 -43.851562 33.125 -43.894531 34.4375 -43.8125 C 35.75 -43.726562 37.019531 -43.710938 38.25 -43.765625 C 39.03125 -43.878906 39.8125 -43.796875 40.59375 -43.515625 C 40.695312 -43.128906 40.734375 -42.722656 40.703125 -42.296875 C 40.679688 -41.878906 40.671875 -41.476562 40.671875 -41.09375 C 40.617188 -40.53125 40.601562 -39.941406 40.625 -39.328125 C 40.65625 -38.710938 40.671875 -38.097656 40.671875 -37.484375 C 40.671875 -37.148438 40.65625 -36.859375 40.625 -36.609375 C 40.601562 -36.359375 40.394531 -36.09375 40 -35.8125 C 38.5 -35.8125 36.96875 -35.796875 35.40625 -35.765625 C 33.84375 -35.742188 32.28125 -35.675781 30.71875 -35.5625 C 30.4375 -35.175781 30.296875 -34.726562 30.296875 -34.21875 C 30.296875 -33.71875 30.296875 -33.25 30.296875 -32.8125 C 30.410156 -30.46875 30.367188 -28.109375 30.171875 -25.734375 C 29.972656 -23.359375 29.929688 -21 30.046875 -18.65625 C 30.160156 -17.707031 30.226562 -16.773438 30.25 -15.859375 C 30.28125 -14.941406 30.40625 -14.007812 30.625 -13.0625 C 30.851562 -12.445312 31.132812 -11.875 31.46875 -11.34375 C 31.800781 -10.8125 32.160156 -10.320312 32.546875 -9.875 C 33.160156 -9.144531 33.875 -8.722656 34.6875 -8.609375 C 35.5 -8.503906 36.347656 -8.507812 37.234375 -8.625 C 37.679688 -8.726562 38.113281 -8.835938 38.53125 -8.953125 C 38.957031 -9.066406 39.445312 -9.179688 40 -9.296875 C 40.5 -8.171875 40.722656 -7.035156 40.671875 -5.890625 C 40.617188 -4.753906 40.675781 -3.628906 40.84375 -2.515625 C 40.394531 -1.953125 39.875 -1.570312 39.28125 -1.375 C 38.695312 -1.1875 38.128906 -1.007812 37.578125 -0.84375 C 35.347656 0 33.0625 0.53125 30.71875 0.75 C 28.375 0.976562 26 0.921875 23.59375 0.578125 C 21.476562 0.304688 19.515625 -0.257812 17.703125 -1.125 C 15.890625 -1.988281 14.226562 -3.203125 12.71875 -4.765625 C 12.332031 -5.210938 12.007812 -5.710938 11.75 -6.265625 C 11.5 -6.828125 11.320312 -7.390625 11.21875 -7.953125 C 10.9375 -9.015625 10.679688 -10.085938 10.453125 -11.171875 C 10.234375 -12.253906 10.125 -13.328125 10.125 -14.390625 C 10.125 -15.234375 10.132812 -16.070312 10.15625 -16.90625 C 10.1875 -17.738281 10.203125 -18.578125 10.203125 -19.421875 C 10.203125 -21.816406 10.21875 -24.195312 10.25 -26.5625 C 10.28125 -28.9375 10.296875 -31.296875 10.296875 -33.640625 C 10.296875 -33.921875 10.296875 -34.226562 10.296875 -34.5625 C 10.296875 -34.894531 10.179688 -35.175781 9.953125 -35.40625 C 9.117188 -35.570312 8.269531 -35.613281 7.40625 -35.53125 C 6.539062 -35.445312 5.632812 -35.488281 4.6875 -35.65625 C 4.289062 -36.9375 4.148438 -38.203125 4.265625 -39.453125 C 4.378906 -40.710938 4.351562 -41.957031 4.1875 -43.1875 C 6.082031 -43.800781 7.976562 -44.273438 9.875 -44.609375 C 11.769531 -44.941406 13.523438 -45.691406 15.140625 -46.859375 C 16.703125 -47.972656 18.097656 -49.226562 19.328125 -50.625 C 20.554688 -52.019531 21.671875 -53.613281 22.671875 -55.40625 Z M 22.671875 -55.40625 "/></g></g><g style="fill:#15b5b0;fill-opacity:1;"><g transform="translate(718.698542, 360.161075)"><path style="stroke:none" d="M 19.75 -59.078125 C 22.207031 -58.191406 23.867188 -56.882812 24.734375 -55.15625 C 25.597656 -53.425781 25.863281 -51.359375 25.53125 -48.953125 C 25.300781 -47.335938 24.851562 -45.757812 24.1875 -44.21875 C 23.519531 -42.6875 22.597656 -41.3125 21.421875 -40.09375 C 20.304688 -38.863281 19.066406 -37.816406 17.703125 -36.953125 C 16.335938 -36.085938 14.816406 -35.515625 13.140625 -35.234375 C 12.742188 -35.179688 12.210938 -35.066406 11.546875 -34.890625 C 10.878906 -34.722656 10.265625 -34.613281 9.703125 -34.5625 C 9.429688 -34.507812 9.222656 -34.535156 9.078125 -34.640625 C 8.941406 -34.753906 8.734375 -35.007812 8.453125 -35.40625 C 8.003906 -35.957031 7.472656 -36.664062 6.859375 -37.53125 C 6.242188 -38.394531 5.96875 -38.882812 6.03125 -39 C 6.644531 -39.382812 7.351562 -39.71875 8.15625 -40 C 8.96875 -40.28125 9.722656 -40.644531 10.421875 -41.09375 C 11.117188 -41.539062 11.550781 -42.207031 11.71875 -43.09375 C 10.707031 -43.039062 9.8125 -43.289062 9.03125 -43.84375 C 8.25 -44.40625 7.554688 -44.910156 6.953125 -45.359375 C 5.890625 -46.253906 5.203125 -47.394531 4.890625 -48.78125 C 4.585938 -50.175781 4.613281 -51.597656 4.96875 -53.046875 C 5.332031 -54.503906 6.019531 -55.648438 7.03125 -56.484375 C 8.875 -58.109375 10.867188 -59.15625 13.015625 -59.625 C 15.160156 -60.101562 17.40625 -59.921875 19.75 -59.078125 Z M 19.75 -59.078125 "/></g></g><g style="fill:#15b5b0;fill-opacity:1;"><g transform="translate(748.908517, 360.161075)"><path style="stroke:none" d="M 31.640625 -45.109375 C 35.097656 -44.773438 38.082031 -43.976562 40.59375 -42.71875 C 43.101562 -41.46875 45.582031 -39.613281 48.03125 -37.15625 C 48.539062 -36.65625 48.945312 -36.097656 49.25 -35.484375 C 49.550781 -34.867188 49.875 -34.253906 50.21875 -33.640625 C 51.4375 -31.410156 52.1875 -29.175781 52.46875 -26.9375 C 52.75 -24.707031 52.832031 -22.253906 52.71875 -19.578125 C 52.71875 -19.242188 52.664062 -18.910156 52.5625 -18.578125 C 52.5 -18.296875 52.269531 -18.171875 51.875 -18.203125 C 51.488281 -18.234375 51.15625 -18.25 50.875 -18.25 C 49.375 -18.25 48.066406 -18.21875 46.953125 -18.15625 C 45.835938 -18.101562 44.707031 -18.0625 43.5625 -18.03125 C 42.414062 -18.007812 41.085938 -18.023438 39.578125 -18.078125 C 37.515625 -18.191406 35.476562 -18.21875 33.46875 -18.15625 C 31.46875 -18.101562 29.429688 -18.132812 27.359375 -18.25 C 26.972656 -18.25 26.582031 -18.207031 26.1875 -18.125 C 25.800781 -18.039062 25.410156 -17.96875 25.015625 -17.90625 C 24.796875 -16.175781 25.117188 -14.457031 25.984375 -12.75 C 26.847656 -11.050781 28.0625 -9.8125 29.625 -9.03125 C 30.90625 -8.363281 32.226562 -7.957031 33.59375 -7.8125 C 34.96875 -7.675781 36.351562 -7.691406 37.75 -7.859375 C 39.53125 -8.035156 40.9375 -8.414062 41.96875 -9 C 43 -9.582031 44.210938 -10.347656 45.609375 -11.296875 C 46.003906 -11.578125 46.394531 -11.941406 46.78125 -12.390625 C 47.164062 -12.835938 47.582031 -13.171875 48.03125 -13.390625 C 48.257812 -13.554688 48.582031 -13.316406 49 -12.671875 C 49.414062 -12.035156 49.890625 -11.210938 50.421875 -10.203125 C 50.953125 -9.203125 51.46875 -8.171875 51.96875 -7.109375 C 51.132812 -6.222656 50.210938 -5.347656 49.203125 -4.484375 C 48.203125 -3.617188 47.203125 -2.90625 46.203125 -2.34375 C 44.242188 -1.28125 42.484375 -0.507812 40.921875 -0.03125 C 39.359375 0.4375 37.460938 0.753906 35.234375 0.921875 C 33.890625 1.085938 32.519531 1.179688 31.125 1.203125 C 29.738281 1.234375 28.347656 1.140625 26.953125 0.921875 C 25.609375 0.691406 24.421875 0.519531 23.390625 0.40625 C 22.359375 0.300781 21.171875 0.0546875 19.828125 -0.328125 C 18.160156 -0.835938 16.679688 -1.453125 15.390625 -2.171875 C 14.109375 -2.898438 12.769531 -3.796875 11.375 -4.859375 C 9.988281 -5.972656 8.734375 -7.226562 7.609375 -8.625 C 6.492188 -10.019531 5.628906 -11.609375 5.015625 -13.390625 C 4.460938 -15.171875 4.085938 -16.984375 3.890625 -18.828125 C 3.691406 -20.671875 3.734375 -22.515625 4.015625 -24.359375 C 4.410156 -26.640625 5.039062 -28.835938 5.90625 -30.953125 C 6.769531 -33.078125 7.953125 -35.085938 9.453125 -36.984375 C 10.296875 -38.046875 11.21875 -38.992188 12.21875 -39.828125 C 13.21875 -40.671875 14.332031 -41.367188 15.5625 -41.921875 C 16.625 -42.429688 17.53125 -42.863281 18.28125 -43.21875 C 19.039062 -43.582031 20.113281 -43.929688 21.5 -44.265625 C 23.238281 -44.710938 24.929688 -45.003906 26.578125 -45.140625 C 28.222656 -45.285156 29.910156 -45.273438 31.640625 -45.109375 Z M 32.71875 -34.984375 C 31.882812 -35.765625 30.867188 -36.070312 29.671875 -35.90625 C 28.472656 -35.738281 27.535156 -35.125 26.859375 -34.0625 C 26.023438 -32.832031 25.484375 -31.503906 25.234375 -30.078125 C 24.984375 -28.660156 24.800781 -27.226562 24.6875 -25.78125 C 26.300781 -25.613281 27.863281 -25.597656 29.375 -25.734375 C 30.882812 -25.867188 32.421875 -25.882812 33.984375 -25.78125 C 34.367188 -27.226562 34.476562 -28.617188 34.3125 -29.953125 C 34.144531 -31.296875 33.863281 -32.609375 33.46875 -33.890625 C 33.300781 -34.285156 33.050781 -34.648438 32.71875 -34.984375 Z M 32.71875 -34.984375 "/></g></g><g style="fill:#15b5b0;fill-opacity:1;"><g transform="translate(814.098364, 360.161075)"><path style="stroke:none" d="M 46.28125 -44.359375 C 47.0625 -44.191406 47.8125 -44.050781 48.53125 -43.9375 C 49.257812 -43.820312 49.988281 -43.570312 50.71875 -43.1875 C 53 -41.957031 54.835938 -40.421875 56.234375 -38.578125 C 57.628906 -36.734375 58.410156 -34.445312 58.578125 -31.71875 C 58.691406 -29.757812 58.734375 -27.789062 58.703125 -25.8125 C 58.679688 -23.832031 58.695312 -21.867188 58.75 -19.921875 C 58.863281 -16.679688 58.945312 -13.425781 59 -10.15625 C 59.050781 -6.894531 59.109375 -3.648438 59.171875 -0.421875 C 59.003906 -0.191406 58.832031 -0.0625 58.65625 -0.03125 C 58.488281 -0.0078125 58.296875 0 58.078125 0 C 56.296875 0.0507812 54.5 0.078125 52.6875 0.078125 C 50.875 0.078125 49.070312 0.109375 47.28125 0.171875 C 46.21875 0.171875 45.226562 0.179688 44.3125 0.203125 C 43.394531 0.234375 42.40625 0.304688 41.34375 0.421875 C 40.894531 0.421875 40.472656 0.390625 40.078125 0.328125 C 39.691406 0.273438 39.304688 0.0546875 38.921875 -0.328125 C 38.691406 -0.773438 38.585938 -1.207031 38.609375 -1.625 C 38.640625 -2.050781 38.65625 -2.457031 38.65625 -2.84375 C 38.65625 -4.457031 38.640625 -6.085938 38.609375 -7.734375 C 38.585938 -9.378906 38.578125 -10.984375 38.578125 -12.546875 C 38.578125 -14.335938 38.578125 -16.097656 38.578125 -17.828125 C 38.578125 -19.554688 38.519531 -21.285156 38.40625 -23.015625 C 38.351562 -24.242188 38.328125 -25.425781 38.328125 -26.5625 C 38.328125 -27.707031 38.328125 -28.925781 38.328125 -30.21875 C 38.492188 -31.5 38.253906 -32.570312 37.609375 -33.4375 C 36.972656 -34.300781 36.125 -34.882812 35.0625 -35.1875 C 34 -35.5 32.882812 -35.429688 31.71875 -34.984375 C 30.65625 -34.585938 29.660156 -34.023438 28.734375 -33.296875 C 27.816406 -32.578125 26.882812 -31.851562 25.9375 -31.125 C 25.769531 -30.570312 25.628906 -29.988281 25.515625 -29.375 C 25.410156 -28.757812 25.359375 -28.144531 25.359375 -27.53125 C 25.359375 -24.800781 25.359375 -22.097656 25.359375 -19.421875 C 25.359375 -16.742188 25.382812 -14.035156 25.4375 -11.296875 C 25.5 -9.566406 25.582031 -7.820312 25.6875 -6.0625 C 25.800781 -4.3125 25.832031 -2.539062 25.78125 -0.75 C 25.332031 -0.363281 24.84375 -0.140625 24.3125 -0.078125 C 23.78125 -0.0234375 23.234375 0 22.671875 0 L 5.515625 0 C 5.296875 -7.195312 5.15625 -14.460938 5.09375 -21.796875 C 5.039062 -29.140625 5.046875 -36.4375 5.109375 -43.6875 C 6.773438 -43.738281 8.347656 -43.804688 9.828125 -43.890625 C 11.304688 -43.972656 12.882812 -44.03125 14.5625 -44.0625 C 16.238281 -44.09375 18.132812 -43.96875 20.25 -43.6875 C 20.8125 -42.957031 21.328125 -42.101562 21.796875 -41.125 C 22.273438 -40.15625 22.875 -39.363281 23.59375 -38.75 C 24.71875 -39.53125 25.804688 -40.238281 26.859375 -40.875 C 27.921875 -41.519531 29.066406 -42.066406 30.296875 -42.515625 C 32.921875 -43.460938 35.539062 -44.171875 38.15625 -44.640625 C 40.78125 -45.117188 43.488281 -45.023438 46.28125 -44.359375 Z M 46.28125 -44.359375 "/></g></g><g style="fill:#15b5b0;fill-opacity:1;"><g transform="translate(886.903429, 360.161075)"><path style="stroke:none" d="M 29.953125 -44.515625 C 31.128906 -44.242188 32.300781 -43.953125 33.46875 -43.640625 C 34.644531 -43.335938 35.816406 -42.960938 36.984375 -42.515625 C 38.273438 -41.953125 39.378906 -41.210938 40.296875 -40.296875 C 41.210938 -39.378906 41.976562 -38.304688 42.59375 -37.078125 C 43.09375 -36.179688 43.535156 -35.269531 43.921875 -34.34375 C 44.316406 -33.425781 44.460938 -32.382812 44.359375 -31.21875 C 42.960938 -30.882812 41.550781 -30.769531 40.125 -30.875 C 38.707031 -30.988281 37.269531 -31.070312 35.8125 -31.125 C 35.476562 -31.570312 35.1875 -32.046875 34.9375 -32.546875 C 34.6875 -33.054688 34.394531 -33.535156 34.0625 -33.984375 C 33.5 -34.867188 32.601562 -35.578125 31.375 -36.109375 C 30.15625 -36.640625 28.914062 -36.972656 27.65625 -37.109375 C 26.40625 -37.253906 25.390625 -37.128906 24.609375 -36.734375 C 23.878906 -36.398438 23.359375 -35.8125 23.046875 -34.96875 C 22.742188 -34.132812 23.148438 -33.242188 24.265625 -32.296875 C 24.941406 -31.742188 25.582031 -31.269531 26.1875 -30.875 C 26.800781 -30.488281 27.414062 -30.128906 28.03125 -29.796875 C 29.757812 -28.898438 31.460938 -27.945312 33.140625 -26.9375 C 34.816406 -25.9375 36.519531 -24.90625 38.25 -23.84375 C 40.425781 -22.5625 42.15625 -21 43.4375 -19.15625 C 44.71875 -17.320312 45.273438 -15.035156 45.109375 -12.296875 C 44.941406 -9.398438 44.101562 -7.003906 42.59375 -5.109375 C 41.09375 -3.210938 39.03125 -1.757812 36.40625 -0.75 C 33.894531 0.25 31.34375 0.832031 28.75 1 C 26.15625 1.164062 23.546875 1.082031 20.921875 0.75 C 17.179688 0.25 13.640625 -0.613281 10.296875 -1.84375 C 9.398438 -2.226562 8.53125 -2.65625 7.6875 -3.125 C 6.851562 -3.601562 6.019531 -4.066406 5.1875 -4.515625 C 4.90625 -4.679688 4.664062 -4.890625 4.46875 -5.140625 C 4.28125 -5.390625 4.046875 -5.6875 3.765625 -6.03125 C 4.265625 -7.3125 4.804688 -8.519531 5.390625 -9.65625 C 5.984375 -10.800781 6.722656 -11.847656 7.609375 -12.796875 C 8.003906 -12.859375 8.296875 -12.789062 8.484375 -12.59375 C 8.679688 -12.394531 8.894531 -12.242188 9.125 -12.140625 C 10.457031 -11.191406 11.847656 -10.410156 13.296875 -9.796875 C 14.753906 -9.179688 16.265625 -8.648438 17.828125 -8.203125 C 19.054688 -7.867188 20.269531 -7.628906 21.46875 -7.484375 C 22.664062 -7.347656 23.878906 -7.335938 25.109375 -7.453125 C 25.554688 -7.503906 25.972656 -7.628906 26.359375 -7.828125 C 26.753906 -8.023438 27.0625 -8.34375 27.28125 -8.78125 C 27.5625 -9.289062 27.585938 -9.738281 27.359375 -10.125 C 27.140625 -10.519531 26.863281 -10.882812 26.53125 -11.21875 C 25.914062 -11.832031 25.226562 -12.375 24.46875 -12.84375 C 23.71875 -13.320312 22.953125 -13.753906 22.171875 -14.140625 C 20.609375 -14.703125 19.128906 -15.375 17.734375 -16.15625 C 16.347656 -16.9375 14.925781 -17.6875 13.46875 -18.40625 C 12.6875 -18.851562 11.929688 -19.328125 11.203125 -19.828125 C 10.484375 -20.335938 9.757812 -20.84375 9.03125 -21.34375 C 7.46875 -22.457031 6.363281 -23.78125 5.71875 -25.3125 C 5.082031 -26.84375 4.796875 -28.503906 4.859375 -30.296875 C 4.910156 -32.078125 5.253906 -33.707031 5.890625 -35.1875 C 6.535156 -36.664062 7.445312 -38.019531 8.625 -39.25 C 9.675781 -40.363281 10.816406 -41.320312 12.046875 -42.125 C 13.273438 -42.9375 14.613281 -43.539062 16.0625 -43.9375 C 18.351562 -44.550781 20.65625 -44.925781 22.96875 -45.0625 C 25.28125 -45.207031 27.609375 -45.023438 29.953125 -44.515625 Z M 29.953125 -44.515625 "/></g></g><path style="fill:none;stroke-width:7;stroke-linecap:butt;stroke-linejoin:miter;stroke:#f8d210;stroke-opacity:1;stroke-miterlimit:4;" d="M -0.00109484 3.498903 L 584.394762 3.498903 " transform="matrix(-0.749499,0,0,-0.749499,905.549961,398.200548)"/><g clip-rule="nonzero" clip-path="url(#c3661f2fc3)"><path style=" stroke:none;fill-rule:nonzero;fill:#f8d210;fill-opacity:1;" d="M 736.128906 341.054688 C 730.828125 385.832031 726.53125 390.128906 681.753906 395.429688 C 681.847656 395.441406 681.9375 395.449219 682.03125 395.460938 C 726.550781 400.746094 730.839844 405.117188 736.128906 449.804688 C 741.429688 405.023438 745.722656 400.726562 790.503906 395.429688 C 745.722656 390.128906 741.429688 385.832031 736.128906 341.054688 Z M 736.128906 341.054688 "/></g></g></svg>