<svg xmlns="http://www.w3.org/2000/svg" xmlns:xlink="http://www.w3.org/1999/xlink" width="600" zoomAndPan="magnify" viewBox="0 0 450 184.499994" height="246" preserveAspectRatio="xMidYMid meet" version="1.2"><defs><clipPath id="1836b19bcc"><path d="M 0.609375 0 L 449.390625 0 L 449.390625 184 L 0.609375 184 Z M 0.609375 0 "/></clipPath><clipPath id="38c71236f3"><path d="M 226.46875 83.40625 L 322.101562 83.40625 L 322.101562 179.007812 L 226.46875 179.007812 Z M 226.46875 83.40625 "/></clipPath><clipPath id="223b37515c"><path d="M 254.921875 42.699219 L 287.460938 42.699219 L 287.460938 73.214844 L 254.921875 73.214844 Z M 254.921875 42.699219 "/></clipPath></defs><g id="cc366abf58"><g clip-rule="nonzero" clip-path="url(#1836b19bcc)"><path style=" stroke:none;fill-rule:nonzero;fill:#ffffff;fill-opacity:1;" d="M 0.609375 0 L 449.390625 0 L 449.390625 184 L 0.609375 184 Z M 0.609375 0 "/><path style=" stroke:none;fill-rule:nonzero;fill:#ffffff;fill-opacity:1;" d="M 0.609375 0 L 449.390625 0 L 449.390625 184 L 0.609375 184 Z M 0.609375 0 "/></g><path style=" stroke:none;fill-rule:nonzero;fill:#15b5b0;fill-opacity:1;" d="M 50.773438 48.707031 C 52.394531 48.5625 53.128906 49.199219 52.984375 50.617188 C 52.882812 51.304688 52.855469 51.984375 52.902344 52.648438 C 52.957031 53.308594 53.003906 53.980469 53.054688 54.667969 C 53.097656 54.859375 53.097656 55.046875 53.054688 55.21875 C 53.003906 55.394531 52.957031 55.574219 52.902344 55.765625 C 48.730469 55.816406 44.5625 55.792969 40.382812 55.699219 C 36.214844 55.597656 32.046875 55.746094 27.878906 56.136719 C 27.980469 58.347656 27.964844 60.625 27.839844 62.980469 C 27.71875 65.335938 27.785156 67.636719 28.03125 69.886719 C 28.863281 69.796875 29.699219 69.8125 30.53125 69.929688 C 31.363281 70.050781 32.199219 70.0625 33.03125 69.96875 C 33.617188 69.871094 34.203125 69.820312 34.792969 69.820312 C 35.386719 69.820312 35.976562 69.84375 36.5625 69.886719 C 37.835938 69.886719 39.125 69.855469 40.425781 69.777344 C 41.722656 69.707031 43.015625 69.648438 44.300781 69.597656 C 44.933594 69.554688 45.554688 69.515625 46.167969 69.488281 C 46.78125 69.460938 47.410156 69.476562 48.050781 69.53125 C 49.179688 69.625 49.691406 70.1875 49.589844 71.21875 C 49.542969 72.054688 49.527344 72.878906 49.550781 73.691406 C 49.578125 74.5 49.617188 75.320312 49.671875 76.152344 C 49.671875 77.03125 49.277344 77.46875 48.492188 77.46875 C 47.804688 77.46875 47.101562 77.484375 46.390625 77.511719 C 45.679688 77.53125 44.988281 77.539062 44.300781 77.539062 C 42.972656 77.539062 41.65625 77.566406 40.355469 77.621094 C 39.054688 77.667969 37.738281 77.714844 36.414062 77.757812 C 35.925781 77.8125 35.425781 77.839844 34.902344 77.839844 C 34.386719 77.839844 33.863281 77.839844 33.335938 77.839844 L 27.878906 77.839844 C 27.6875 80.390625 27.664062 82.9375 27.8125 85.492188 C 27.957031 88.039062 28.078125 90.585938 28.183594 93.144531 C 28.476562 93.335938 28.789062 93.410156 29.128906 93.363281 C 29.476562 93.316406 29.820312 93.316406 30.160156 93.363281 C 30.949219 93.410156 31.730469 93.445312 32.511719 93.472656 C 33.296875 93.5 34.0625 93.484375 34.804688 93.429688 C 35.785156 93.34375 36.734375 93.292969 37.664062 93.292969 C 38.597656 93.292969 39.53125 93.21875 40.464844 93.058594 C 41.007812 92.972656 41.582031 92.945312 42.199219 92.992188 C 42.808594 93.039062 43.410156 93.039062 43.996094 92.992188 C 45.222656 92.847656 46.449219 92.773438 47.679688 92.773438 C 48.90625 92.773438 50.132812 92.773438 51.363281 92.773438 C 52.09375 92.773438 52.828125 92.6875 53.5625 92.523438 C 54.304688 92.351562 55.0625 92.457031 55.84375 92.839844 L 55.84375 98.363281 C 55.941406 99.488281 55.449219 100.007812 54.371094 99.914062 C 53.140625 99.859375 51.914062 99.898438 50.691406 100.023438 C 49.46875 100.144531 48.21875 100.183594 46.9375 100.132812 C 45.371094 100.035156 43.792969 100.011719 42.199219 100.066406 C 40.605469 100.113281 39.015625 100.160156 37.445312 100.203125 C 35.4375 100.246094 33.402344 100.273438 31.34375 100.273438 C 29.28125 100.273438 27.222656 100.273438 25.160156 100.273438 C 24.96875 100.273438 24.488281 100.285156 23.730469 100.3125 C 22.96875 100.339844 22.109375 100.375 21.148438 100.421875 C 20.191406 100.46875 19.285156 100.503906 18.425781 100.53125 C 17.566406 100.558594 16.9375 100.574219 16.542969 100.574219 C 15.617188 100.472656 14.695312 100.394531 13.78125 100.339844 C 12.875 100.292969 11.929688 100.273438 10.953125 100.273438 C 10.613281 100.273438 10.085938 100.304688 9.371094 100.382812 C 8.65625 100.453125 8.300781 100.414062 8.300781 100.273438 C 8.398438 99.25 8.4375 98.207031 8.410156 97.152344 C 8.390625 96.101562 8.332031 95.058594 8.230469 94.023438 C 8.082031 92.605469 8.082031 91.132812 8.230469 89.613281 C 8.332031 88.871094 8.367188 88.113281 8.339844 87.332031 C 8.3125 86.546875 8.300781 85.757812 8.300781 84.96875 C 8.300781 84.339844 8.3125 83.714844 8.339844 83.101562 C 8.367188 82.492188 8.332031 81.863281 8.230469 81.21875 C 8.183594 80.242188 8.125 79.261719 8.054688 78.28125 C 7.976562 77.300781 7.941406 76.324219 7.941406 75.339844 C 7.941406 74.308594 7.929688 73.261719 7.902344 72.210938 C 7.875 71.160156 7.859375 70.113281 7.859375 69.078125 C 7.914062 68.054688 7.949219 67.027344 7.96875 66 C 7.996094 64.96875 8.03125 63.9375 8.082031 62.910156 C 8.179688 59.421875 8.179688 56.453125 8.082031 54.007812 C 7.988281 51.558594 7.914062 50.082031 7.859375 49.585938 C 7.960938 49.488281 8.082031 49.414062 8.230469 49.367188 C 8.375 49.320312 8.480469 49.25 8.535156 49.148438 C 8.871094 49.046875 9.152344 49.007812 9.371094 49.035156 C 9.59375 49.0625 9.875 49.078125 10.222656 49.078125 C 12.523438 48.976562 14.832031 48.964844 17.164062 49.035156 C 19.5 49.113281 21.820312 49.097656 24.128906 48.996094 C 24.960938 48.949219 25.796875 48.941406 26.628906 48.96875 C 27.460938 48.988281 28.273438 48.976562 29.0625 48.925781 C 30.234375 48.828125 31.417969 48.8125 32.621094 48.886719 C 33.828125 48.960938 35.019531 48.949219 36.195312 48.859375 C 37.328125 48.757812 38.480469 48.746094 39.65625 48.816406 C 40.835938 48.894531 42.011719 48.878906 43.1875 48.777344 C 44.3125 48.675781 45.46875 48.636719 46.648438 48.664062 C 47.832031 48.695312 49.007812 48.707031 50.179688 48.707031 Z M 50.773438 48.707031 "/><path style=" stroke:none;fill-rule:nonzero;fill:#15b5b0;fill-opacity:1;" d="M 94.929688 60.917969 C 95.121094 60.964844 95.300781 60.988281 95.476562 60.988281 C 95.648438 60.988281 95.835938 61.039062 96.027344 61.136719 C 97.007812 61.476562 97.984375 61.820312 98.96875 62.167969 C 99.945312 62.507812 100.882812 62.949219 101.769531 63.488281 C 103.289062 64.421875 104.589844 65.539062 105.671875 66.839844 C 106.75 68.140625 107.488281 69.722656 107.871094 71.589844 C 107.925781 71.738281 107.953125 71.898438 107.953125 72.070312 C 107.953125 72.238281 107.953125 72.394531 107.953125 72.539062 C 108 72.640625 108.007812 72.753906 107.980469 72.882812 C 107.960938 73.003906 107.953125 73.15625 107.953125 73.347656 C 106.722656 73.347656 105.507812 73.453125 104.300781 73.652344 C 103.097656 73.84375 101.859375 73.839844 100.589844 73.636719 C 100.398438 73.445312 100.273438 73.277344 100.21875 73.128906 C 99.878906 71.757812 99.261719 70.707031 98.375 69.96875 C 97.496094 69.230469 96.417969 68.6875 95.148438 68.347656 C 94.109375 68.058594 93.113281 68.035156 92.152344 68.28125 C 91.199219 68.519531 90.304688 68.980469 89.472656 69.667969 C 87.714844 71.144531 86.636719 73.035156 86.242188 75.339844 C 86.097656 76.074219 85.949219 76.8125 85.804688 77.550781 C 85.65625 78.289062 85.53125 78.996094 85.433594 79.679688 C 85.230469 81 85.253906 82.289062 85.503906 83.542969 C 85.75 84.789062 86.042969 86.023438 86.382812 87.25 C 86.628906 88.039062 87.007812 88.8125 87.523438 89.570312 C 88.042969 90.332031 88.691406 90.984375 89.472656 91.523438 C 90.902344 92.503906 92.472656 92.992188 94.1875 92.992188 C 95.757812 93.039062 97.207031 92.746094 98.527344 92.113281 C 99.855469 91.472656 101.105469 90.683594 102.277344 89.75 C 102.625 89.457031 102.957031 89.167969 103.269531 88.871094 C 103.589844 88.578125 103.996094 88.335938 104.492188 88.144531 C 105.371094 88.730469 106.175781 89.417969 106.910156 90.203125 C 107.652344 90.984375 108.414062 91.714844 109.203125 92.402344 C 109.148438 92.546875 109.109375 92.671875 109.082031 92.773438 C 109.058594 92.875 109.027344 92.945312 108.984375 92.992188 C 107.65625 94.222656 106.292969 95.394531 104.890625 96.523438 C 103.496094 97.648438 101.9375 98.554688 100.21875 99.242188 C 98.988281 99.734375 97.703125 100.078125 96.355469 100.273438 C 95.011719 100.472656 93.648438 100.699219 92.277344 100.945312 C 89.917969 101.382812 87.609375 101.371094 85.351562 100.902344 C 83.097656 100.4375 80.890625 99.789062 78.726562 98.953125 C 77.355469 98.414062 76.109375 97.703125 75.003906 96.824219 C 73.90625 95.9375 72.863281 94.953125 71.886719 93.871094 C 71.398438 93.285156 70.910156 92.714844 70.414062 92.152344 C 69.925781 91.585938 69.5625 90.910156 69.316406 90.121094 C 68.921875 88.554688 68.527344 86.976562 68.132812 85.382812 C 67.738281 83.789062 67.589844 82.160156 67.695312 80.492188 C 67.839844 78.726562 68.121094 76.996094 68.53125 75.300781 C 68.953125 73.605469 69.652344 71.976562 70.636719 70.410156 C 71.464844 69.085938 72.410156 67.867188 73.464844 66.769531 C 74.527344 65.664062 75.671875 64.640625 76.902344 63.707031 C 77.925781 62.976562 79.015625 62.402344 80.171875 61.988281 C 81.324219 61.570312 82.511719 61.261719 83.742188 61.070312 C 85.601562 60.679688 87.460938 60.457031 89.320312 60.410156 C 91.191406 60.355469 93.058594 60.527344 94.929688 60.917969 Z M 94.929688 60.917969 "/><path style=" stroke:none;fill-rule:nonzero;fill:#15b5b0;fill-opacity:1;" d="M 142.171875 48.117188 C 142.367188 48.265625 142.476562 48.425781 142.503906 48.597656 C 142.53125 48.773438 142.542969 48.933594 142.542969 49.078125 C 142.542969 50.644531 142.550781 52.214844 142.570312 53.789062 C 142.597656 55.355469 142.613281 56.921875 142.613281 58.488281 C 142.65625 62.316406 142.644531 66.070312 142.570312 69.75 C 142.496094 73.425781 142.507812 77.175781 142.613281 81 C 142.65625 81.789062 142.679688 82.589844 142.679688 83.402344 C 142.679688 84.210938 142.707031 85.03125 142.765625 85.863281 C 142.808594 86.695312 142.878906 87.519531 142.96875 88.320312 C 143.070312 89.128906 143.292969 89.925781 143.644531 90.710938 C 143.933594 91.398438 144.523438 91.867188 145.402344 92.113281 C 146.628906 92.453125 147.90625 92.476562 149.234375 92.179688 C 149.71875 92.082031 150.121094 91.996094 150.445312 91.921875 C 150.765625 91.847656 151.023438 91.914062 151.226562 92.113281 C 151.273438 93.140625 151.304688 94.253906 151.324219 95.464844 C 151.351562 96.664062 151.316406 97.777344 151.226562 98.800781 C 150.878906 99.296875 150.382812 99.679688 149.742188 99.957031 C 149.113281 100.21875 148.472656 100.398438 147.835938 100.492188 C 146.121094 100.839844 144.425781 101.058594 142.75 101.152344 C 141.082031 101.25 139.371094 101.226562 137.609375 101.082031 C 136.382812 100.988281 135.226562 100.753906 134.148438 100.382812 C 133.066406 100.015625 132.011719 99.5625 130.988281 99.023438 C 129.464844 98.191406 128.246094 97.121094 127.332031 95.820312 C 126.425781 94.523438 125.753906 93.066406 125.3125 91.453125 C 125.066406 90.417969 124.941406 89.390625 124.941406 88.363281 C 124.941406 87.328125 124.917969 86.296875 124.875 85.273438 C 124.875 83.457031 124.894531 81.742188 124.941406 80.121094 C 124.996094 78.5 124.972656 76.808594 124.875 75.039062 C 124.726562 72.6875 124.710938 70.347656 124.832031 68.019531 C 124.960938 65.683594 124.972656 63.34375 124.875 60.988281 C 124.824219 59.570312 124.792969 58.164062 124.765625 56.769531 C 124.738281 55.367188 124.722656 53.980469 124.722656 52.609375 C 124.675781 51.921875 124.675781 51.234375 124.722656 50.546875 C 124.777344 49.859375 124.824219 49.222656 124.875 48.625 C 125.265625 48.238281 125.769531 48.0625 126.386719 48.089844 C 126.996094 48.109375 127.546875 48.117188 128.035156 48.117188 C 129.464844 48.117188 130.886719 48.152344 132.308594 48.226562 C 133.726562 48.300781 135.125 48.289062 136.5 48.183594 C 137.476562 48.140625 138.4375 48.097656 139.371094 48.046875 C 140.304688 47.992188 141.238281 48.015625 142.171875 48.117188 Z M 142.171875 48.117188 "/><path style=" stroke:none;fill-rule:nonzero;fill:#15b5b0;fill-opacity:1;" d="M 188.675781 60.699219 C 190.984375 60.746094 193.117188 61.214844 195.078125 62.101562 C 197.035156 62.980469 198.855469 64.128906 200.535156 65.546875 C 201.0625 65.941406 201.5625 66.363281 202.03125 66.8125 C 202.5 67.25 202.929688 67.738281 203.324219 68.265625 C 204.152344 69.347656 204.753906 70.492188 205.121094 71.699219 C 205.488281 72.902344 205.699219 74.140625 205.753906 75.410156 C 205.800781 77.71875 205.835938 80.039062 205.863281 82.375 C 205.890625 84.703125 205.878906 87.011719 205.824219 89.308594 C 205.777344 90.832031 205.753906 92.386719 205.753906 93.980469 C 205.753906 95.574219 205.828125 97.136719 205.976562 98.664062 C 206.019531 98.90625 206.03125 99.144531 206.003906 99.390625 C 205.980469 99.640625 205.851562 99.910156 205.605469 100.203125 C 203.6875 100.011719 201.761719 99.976562 199.820312 100.09375 C 197.886719 100.210938 195.9375 100.273438 193.980469 100.273438 C 193.292969 99.585938 192.703125 98.851562 192.207031 98.074219 C 191.71875 97.289062 191.058594 96.695312 190.226562 96.300781 C 190.027344 96.300781 189.851562 96.367188 189.707031 96.496094 C 189.558594 96.613281 189.410156 96.722656 189.265625 96.824219 C 187.84375 98.054688 186.3125 98.996094 184.664062 99.652344 C 183.019531 100.3125 181.296875 100.765625 179.484375 101.011719 C 177.757812 101.207031 176.039062 101.277344 174.316406 101.234375 C 172.601562 101.183594 170.941406 100.839844 169.328125 100.203125 C 167.503906 99.417969 165.992188 98.371094 164.792969 97.070312 C 163.59375 95.773438 162.773438 94.140625 162.335938 92.179688 C 161.5 88.5 162.039062 85.019531 163.957031 81.742188 C 164.878906 80.167969 166.03125 78.917969 167.40625 77.992188 C 168.78125 77.058594 170.324219 76.34375 172.050781 75.847656 C 175.574219 74.871094 179.128906 74.453125 182.710938 74.597656 C 183.398438 74.597656 184.0625 74.636719 184.703125 74.710938 C 185.34375 74.785156 185.984375 74.796875 186.613281 74.75 C 186.863281 74.695312 187.179688 74.695312 187.578125 74.75 C 187.96875 74.796875 188.289062 74.796875 188.539062 74.75 C 188.683594 73.375 188.421875 72.222656 187.753906 71.289062 C 187.09375 70.355469 186.125 69.667969 184.855469 69.230469 C 183.378906 68.6875 181.964844 68.484375 180.609375 68.609375 C 179.261719 68.730469 177.878906 68.988281 176.460938 69.378906 C 175.433594 69.625 174.527344 69.847656 173.738281 70.039062 C 172.949219 70.230469 172.066406 70.597656 171.085938 71.136719 C 170.746094 71.339844 170.320312 71.578125 169.796875 71.851562 C 169.28125 72.121094 168.976562 72.203125 168.875 72.097656 C 168.636719 71.90625 168.285156 71.433594 167.816406 70.671875 C 167.351562 69.910156 166.871094 69.042969 166.375 68.0625 C 165.886719 67.070312 165.425781 66.214844 164.988281 65.480469 C 165.222656 64.941406 165.539062 64.570312 165.933594 64.378906 C 166.328125 64.179688 166.699219 64.003906 167.046875 63.859375 C 169.007812 63.070312 170.992188 62.4375 172.996094 61.949219 C 175.011719 61.453125 177.070312 61.109375 179.179688 60.917969 C 182.367188 60.671875 185.53125 60.597656 188.675781 60.699219 Z M 188.828125 81.8125 C 188.183594 81.8125 187.570312 81.824219 186.984375 81.851562 C 186.398438 81.871094 185.835938 81.929688 185.296875 82.03125 C 183.132812 82.523438 181.644531 83.4375 180.828125 84.765625 C 180.023438 86.082031 179.71875 87.699219 179.921875 89.613281 C 180.066406 90.539062 180.472656 91.324219 181.132812 91.960938 C 181.796875 92.605469 182.589844 93.027344 183.496094 93.226562 C 184.402344 93.417969 185.242188 93.34375 186.023438 92.992188 C 187.15625 92.550781 188.117188 91.816406 188.894531 90.78125 C 188.746094 89.363281 188.695312 87.90625 188.746094 86.414062 C 188.800781 84.910156 188.828125 83.375 188.828125 81.8125 Z M 188.828125 81.8125 "/><path style=" stroke:none;fill-rule:nonzero;fill:#15b5b0;fill-opacity:1;" d="M 235.328125 51.496094 C 236.363281 51.550781 237.445312 51.519531 238.570312 51.398438 C 239.699219 51.273438 240.871094 51.332031 242.101562 51.578125 L 242.101562 61.796875 C 243.328125 61.652344 244.519531 61.617188 245.675781 61.6875 C 246.828125 61.761719 247.945312 61.777344 249.027344 61.730469 C 249.714844 61.628906 250.402344 61.703125 251.089844 61.949219 C 251.179688 62.289062 251.210938 62.644531 251.183594 63.019531 C 251.164062 63.386719 251.15625 63.742188 251.15625 64.078125 C 251.109375 64.570312 251.097656 65.089844 251.117188 65.628906 C 251.144531 66.171875 251.15625 66.710938 251.15625 67.25 C 251.15625 67.546875 251.144531 67.800781 251.117188 68.019531 C 251.097656 68.238281 250.914062 68.472656 250.566406 68.71875 C 249.246094 68.71875 247.902344 68.734375 246.527344 68.761719 C 245.152344 68.78125 243.777344 68.839844 242.40625 68.941406 C 242.15625 69.28125 242.035156 69.675781 242.035156 70.121094 C 242.035156 70.5625 242.035156 70.972656 242.035156 71.359375 C 242.132812 73.417969 242.097656 75.492188 241.925781 77.578125 C 241.75 79.667969 241.710938 81.742188 241.8125 83.800781 C 241.914062 84.636719 241.972656 85.457031 241.992188 86.261719 C 242.019531 87.066406 242.128906 87.890625 242.324219 88.71875 C 242.523438 89.261719 242.769531 89.765625 243.066406 90.230469 C 243.355469 90.699219 243.671875 91.128906 244.011719 91.523438 C 244.550781 92.164062 245.179688 92.535156 245.894531 92.632812 C 246.609375 92.726562 247.355469 92.722656 248.132812 92.621094 C 248.527344 92.53125 248.90625 92.433594 249.273438 92.332031 C 249.648438 92.234375 250.078125 92.132812 250.566406 92.03125 C 251.007812 93.019531 251.203125 94.019531 251.15625 95.023438 C 251.109375 96.023438 251.160156 97.011719 251.308594 97.992188 C 250.914062 98.484375 250.457031 98.824219 249.933594 98.996094 C 249.417969 99.160156 248.921875 99.316406 248.4375 99.460938 C 246.476562 100.203125 244.464844 100.671875 242.40625 100.863281 C 240.34375 101.0625 238.253906 101.011719 236.140625 100.710938 C 234.277344 100.472656 232.554688 99.976562 230.960938 99.214844 C 229.367188 98.453125 227.902344 97.386719 226.574219 96.011719 C 226.234375 95.621094 225.949219 95.183594 225.722656 94.695312 C 225.503906 94.199219 225.347656 93.707031 225.257812 93.210938 C 225.007812 92.277344 224.78125 91.335938 224.582031 90.382812 C 224.390625 89.429688 224.296875 88.484375 224.296875 87.550781 C 224.296875 86.808594 224.300781 86.074219 224.324219 85.339844 C 224.351562 84.609375 224.363281 83.871094 224.363281 83.128906 C 224.363281 81.023438 224.378906 78.933594 224.40625 76.851562 C 224.433594 74.765625 224.445312 72.691406 224.445312 70.628906 C 224.445312 70.382812 224.445312 70.113281 224.445312 69.820312 C 224.445312 69.527344 224.34375 69.28125 224.144531 69.078125 C 223.410156 68.933594 222.664062 68.894531 221.902344 68.96875 C 221.140625 69.042969 220.34375 69.003906 219.511719 68.859375 C 219.164062 67.730469 219.039062 66.617188 219.140625 65.519531 C 219.242188 64.414062 219.21875 63.320312 219.074219 62.238281 C 220.738281 61.699219 222.40625 61.28125 224.074219 60.988281 C 225.742188 60.695312 227.285156 60.035156 228.707031 59.007812 C 230.078125 58.03125 231.304688 56.929688 232.386719 55.699219 C 233.464844 54.472656 234.449219 53.070312 235.328125 51.496094 Z M 235.328125 51.496094 "/><path style=" stroke:none;fill-rule:nonzero;fill:#15b5b0;fill-opacity:1;" d="M 276.324219 48.269531 C 278.484375 49.046875 279.945312 50.199219 280.707031 51.714844 C 281.46875 53.238281 281.699219 55.054688 281.410156 57.167969 C 281.207031 58.589844 280.8125 59.976562 280.226562 61.332031 C 279.640625 62.675781 278.828125 63.886719 277.796875 64.957031 C 276.8125 66.039062 275.722656 66.957031 274.523438 67.71875 C 273.324219 68.480469 271.984375 68.980469 270.511719 69.230469 C 270.164062 69.277344 269.695312 69.375 269.109375 69.53125 C 268.523438 69.679688 267.984375 69.773438 267.488281 69.820312 C 267.25 69.867188 267.066406 69.84375 266.941406 69.75 C 266.820312 69.652344 266.636719 69.425781 266.390625 69.078125 C 265.996094 68.59375 265.527344 67.972656 264.988281 67.210938 C 264.445312 66.449219 264.207031 66.019531 264.261719 65.917969 C 264.800781 65.582031 265.421875 65.285156 266.128906 65.039062 C 266.84375 64.792969 267.507812 64.472656 268.121094 64.078125 C 268.734375 63.6875 269.113281 63.097656 269.261719 62.320312 C 268.371094 62.367188 267.585938 62.148438 266.898438 61.660156 C 266.210938 61.164062 265.601562 60.722656 265.070312 60.328125 C 264.136719 59.542969 263.53125 58.539062 263.257812 57.320312 C 262.988281 56.09375 263.015625 54.84375 263.328125 53.570312 C 263.644531 52.289062 264.25 51.28125 265.140625 50.546875 C 266.761719 49.121094 268.511719 48.199219 270.402344 47.785156 C 272.289062 47.367188 274.265625 47.527344 276.324219 48.269531 Z M 276.324219 48.269531 "/><path style=" stroke:none;fill-rule:nonzero;fill:#15b5b0;fill-opacity:1;" d="M 313.347656 60.546875 C 316.386719 60.84375 319.011719 61.542969 321.222656 62.648438 C 323.425781 63.746094 325.609375 65.378906 327.761719 67.539062 C 328.207031 67.980469 328.566406 68.46875 328.832031 69.007812 C 329.097656 69.550781 329.382812 70.089844 329.683594 70.628906 C 330.757812 72.589844 331.417969 74.554688 331.664062 76.523438 C 331.910156 78.484375 331.984375 80.640625 331.882812 82.992188 C 331.882812 83.289062 331.835938 83.578125 331.746094 83.871094 C 331.691406 84.117188 331.488281 84.226562 331.140625 84.199219 C 330.800781 84.171875 330.507812 84.160156 330.261719 84.160156 C 328.941406 84.160156 327.792969 84.1875 326.8125 84.242188 C 325.832031 84.289062 324.839844 84.324219 323.832031 84.351562 C 322.820312 84.371094 321.652344 84.359375 320.328125 84.3125 C 318.515625 84.210938 316.722656 84.1875 314.957031 84.242188 C 313.195312 84.289062 311.402344 84.261719 309.582031 84.160156 C 309.242188 84.160156 308.898438 84.195312 308.550781 84.269531 C 308.210938 84.34375 307.867188 84.40625 307.523438 84.460938 C 307.328125 85.984375 307.609375 87.492188 308.375 88.996094 C 309.132812 90.488281 310.199219 91.578125 311.574219 92.261719 C 312.703125 92.851562 313.863281 93.207031 315.066406 93.335938 C 316.273438 93.457031 317.492188 93.441406 318.71875 93.292969 C 320.285156 93.140625 321.523438 92.804688 322.429688 92.292969 C 323.335938 91.78125 324.402344 91.105469 325.632812 90.273438 C 325.976562 90.023438 326.320312 89.707031 326.660156 89.308594 C 327 88.917969 327.367188 88.625 327.761719 88.429688 C 327.960938 88.285156 328.246094 88.496094 328.613281 89.0625 C 328.976562 89.621094 329.394531 90.347656 329.863281 91.234375 C 330.332031 92.113281 330.785156 93.019531 331.222656 93.953125 C 330.488281 94.734375 329.679688 95.5 328.792969 96.261719 C 327.914062 97.023438 327.03125 97.648438 326.152344 98.144531 C 324.429688 99.078125 322.882812 99.757812 321.507812 100.175781 C 320.136719 100.585938 318.464844 100.867188 316.507812 101.011719 C 315.328125 101.15625 314.121094 101.238281 312.894531 101.261719 C 311.675781 101.289062 310.453125 101.207031 309.226562 101.011719 C 308.042969 100.8125 307 100.660156 306.09375 100.558594 C 305.1875 100.46875 304.140625 100.25 302.960938 99.914062 C 301.492188 99.46875 300.191406 98.925781 299.058594 98.292969 C 297.929688 97.65625 296.753906 96.863281 295.527344 95.929688 C 294.308594 94.953125 293.203125 93.851562 292.214844 92.621094 C 291.230469 91.394531 290.472656 89.996094 289.933594 88.429688 C 289.445312 86.867188 289.117188 85.273438 288.945312 83.652344 C 288.769531 82.03125 288.808594 80.410156 289.054688 78.789062 C 289.402344 76.785156 289.953125 74.851562 290.71875 72.992188 C 291.476562 71.125 292.515625 69.359375 293.835938 67.691406 C 294.578125 66.757812 295.390625 65.925781 296.269531 65.191406 C 297.148438 64.449219 298.125 63.835938 299.207031 63.347656 C 300.144531 62.902344 300.941406 62.523438 301.597656 62.210938 C 302.265625 61.890625 303.210938 61.585938 304.429688 61.289062 C 305.957031 60.898438 307.445312 60.640625 308.894531 60.519531 C 310.34375 60.394531 311.824219 60.402344 313.347656 60.546875 Z M 314.296875 69.449219 C 313.5625 68.761719 312.667969 68.492188 311.617188 68.636719 C 310.5625 68.785156 309.738281 69.324219 309.144531 70.257812 C 308.40625 71.339844 307.933594 72.507812 307.714844 73.761719 C 307.496094 75.007812 307.332031 76.269531 307.234375 77.539062 C 308.652344 77.6875 310.027344 77.699219 311.355469 77.578125 C 312.679688 77.464844 314.035156 77.449219 315.410156 77.539062 C 315.746094 76.269531 315.839844 75.046875 315.695312 73.871094 C 315.550781 72.691406 315.300781 71.535156 314.957031 70.410156 C 314.808594 70.0625 314.585938 69.742188 314.296875 69.449219 Z M 314.296875 69.449219 "/><path style=" stroke:none;fill-rule:nonzero;fill:#15b5b0;fill-opacity:1;" d="M 383.550781 61.207031 C 384.238281 61.355469 384.894531 61.476562 385.527344 61.578125 C 386.167969 61.679688 386.808594 61.902344 387.453125 62.238281 C 389.457031 63.320312 391.074219 64.667969 392.300781 66.289062 C 393.527344 67.910156 394.214844 69.921875 394.363281 72.320312 C 394.464844 74.042969 394.5 75.773438 394.472656 77.511719 C 394.453125 79.253906 394.464844 80.980469 394.515625 82.691406 C 394.613281 85.539062 394.6875 88.402344 394.734375 91.273438 C 394.777344 94.140625 394.832031 96.996094 394.886719 99.832031 C 394.738281 100.035156 394.585938 100.148438 394.433594 100.175781 C 394.285156 100.195312 394.117188 100.203125 393.921875 100.203125 C 392.355469 100.246094 390.777344 100.273438 389.183594 100.273438 C 387.589844 100.273438 386.003906 100.300781 384.429688 100.355469 C 383.496094 100.355469 382.621094 100.359375 381.816406 100.382812 C 381.011719 100.410156 380.140625 100.472656 379.207031 100.574219 C 378.8125 100.574219 378.441406 100.546875 378.09375 100.492188 C 377.753906 100.441406 377.414062 100.25 377.078125 99.914062 C 376.875 99.523438 376.78125 99.140625 376.804688 98.773438 C 376.832031 98.398438 376.84375 98.042969 376.84375 97.703125 C 376.84375 96.285156 376.832031 94.851562 376.804688 93.402344 C 376.78125 91.957031 376.777344 90.546875 376.777344 89.171875 C 376.777344 87.601562 376.777344 86.050781 376.777344 84.53125 C 376.777344 83.011719 376.722656 81.492188 376.625 79.96875 C 376.578125 78.890625 376.554688 77.851562 376.554688 76.851562 C 376.554688 75.847656 376.554688 74.773438 376.554688 73.636719 C 376.699219 72.511719 376.492188 71.570312 375.921875 70.808594 C 375.363281 70.050781 374.617188 69.539062 373.683594 69.269531 C 372.75 68.996094 371.765625 69.058594 370.742188 69.449219 C 369.808594 69.796875 368.933594 70.292969 368.117188 70.933594 C 367.3125 71.5625 366.492188 72.203125 365.660156 72.839844 C 365.511719 73.328125 365.386719 73.839844 365.289062 74.378906 C 365.195312 74.921875 365.152344 75.460938 365.152344 76 C 365.152344 78.402344 365.152344 80.777344 365.152344 83.128906 C 365.152344 85.484375 365.171875 87.863281 365.21875 90.273438 C 365.273438 91.792969 365.347656 93.328125 365.441406 94.875 C 365.539062 96.410156 365.566406 97.972656 365.523438 99.542969 C 365.128906 99.882812 364.699219 100.078125 364.230469 100.132812 C 363.761719 100.183594 363.28125 100.203125 362.789062 100.203125 L 347.699219 100.203125 C 347.507812 93.878906 347.382812 87.492188 347.328125 81.042969 C 347.28125 74.585938 347.289062 68.171875 347.34375 61.796875 C 348.808594 61.753906 350.191406 61.695312 351.492188 61.617188 C 352.792969 61.546875 354.179688 61.496094 355.65625 61.46875 C 357.128906 61.441406 358.796875 61.550781 360.65625 61.796875 C 361.152344 62.441406 361.605469 63.191406 362.019531 64.050781 C 362.4375 64.902344 362.964844 65.597656 363.597656 66.136719 C 364.585938 65.453125 365.542969 64.828125 366.46875 64.269531 C 367.40625 63.703125 368.410156 63.222656 369.492188 62.828125 C 371.800781 61.996094 374.101562 61.371094 376.40625 60.960938 C 378.714844 60.539062 381.09375 60.621094 383.550781 61.207031 Z M 383.550781 61.207031 "/><path style=" stroke:none;fill-rule:nonzero;fill:#15b5b0;fill-opacity:1;" d="M 433.214844 61.070312 C 434.25 61.308594 435.277344 61.5625 436.304688 61.839844 C 437.339844 62.105469 438.371094 62.4375 439.398438 62.828125 C 440.53125 63.320312 441.503906 63.972656 442.3125 64.777344 C 443.113281 65.585938 443.789062 66.53125 444.332031 67.609375 C 444.769531 68.398438 445.160156 69.199219 445.5 70.011719 C 445.84375 70.820312 445.972656 71.734375 445.882812 72.757812 C 444.652344 73.054688 443.414062 73.152344 442.160156 73.0625 C 440.914062 72.960938 439.648438 72.890625 438.367188 72.839844 C 438.070312 72.449219 437.816406 72.03125 437.597656 71.589844 C 437.378906 71.144531 437.121094 70.722656 436.828125 70.328125 C 436.332031 69.550781 435.542969 68.925781 434.464844 68.460938 C 433.394531 67.992188 432.300781 67.699219 431.195312 67.582031 C 430.09375 67.453125 429.203125 67.5625 428.515625 67.910156 C 427.875 68.207031 427.417969 68.71875 427.140625 69.460938 C 426.875 70.195312 427.230469 70.980469 428.214844 71.8125 C 428.808594 72.296875 429.371094 72.714844 429.902344 73.0625 C 430.441406 73.402344 430.980469 73.714844 431.523438 74.007812 C 433.042969 74.796875 434.539062 75.636719 436.019531 76.523438 C 437.492188 77.402344 438.988281 78.308594 440.511719 79.242188 C 442.425781 80.367188 443.945312 81.742188 445.074219 83.363281 C 446.199219 84.976562 446.6875 86.984375 446.542969 89.394531 C 446.394531 91.941406 445.65625 94.046875 444.332031 95.710938 C 443.011719 97.378906 441.199219 98.65625 438.890625 99.542969 C 436.679688 100.421875 434.4375 100.933594 432.15625 101.082031 C 429.875 101.226562 427.582031 101.152344 425.273438 100.863281 C 421.980469 100.421875 418.871094 99.664062 415.929688 98.582031 C 415.140625 98.246094 414.375 97.867188 413.632812 97.457031 C 412.898438 97.035156 412.167969 96.628906 411.4375 96.234375 C 411.1875 96.089844 410.976562 95.902344 410.804688 95.683594 C 410.640625 95.464844 410.433594 95.203125 410.1875 94.902344 C 410.625 93.773438 411.097656 92.714844 411.613281 91.714844 C 412.136719 90.707031 412.785156 89.789062 413.566406 88.953125 C 413.914062 88.898438 414.171875 88.960938 414.335938 89.132812 C 414.507812 89.308594 414.695312 89.441406 414.898438 89.53125 C 416.070312 90.363281 417.292969 91.050781 418.566406 91.589844 C 419.847656 92.132812 421.179688 92.601562 422.550781 92.992188 C 423.628906 93.285156 424.699219 93.496094 425.753906 93.625 C 426.804688 93.742188 427.875 93.753906 428.957031 93.652344 C 429.347656 93.605469 429.714844 93.496094 430.054688 93.320312 C 430.402344 93.148438 430.671875 92.867188 430.863281 92.484375 C 431.113281 92.035156 431.132812 91.640625 430.933594 91.300781 C 430.742188 90.957031 430.496094 90.636719 430.207031 90.339844 C 429.664062 89.800781 429.058594 89.324219 428.390625 88.910156 C 427.730469 88.492188 427.058594 88.113281 426.371094 87.773438 C 424.996094 87.277344 423.695312 86.6875 422.46875 86 C 421.25 85.3125 420 84.652344 418.71875 84.023438 C 418.03125 83.628906 417.363281 83.210938 416.726562 82.773438 C 416.09375 82.324219 415.457031 81.878906 414.816406 81.441406 C 413.441406 80.460938 412.46875 79.296875 411.902344 77.949219 C 411.34375 76.605469 411.09375 75.144531 411.148438 73.570312 C 411.191406 72.003906 411.496094 70.570312 412.054688 69.269531 C 412.621094 67.972656 413.421875 66.78125 414.457031 65.699219 C 415.382812 64.71875 416.386719 63.878906 417.46875 63.171875 C 418.546875 62.457031 419.726562 61.929688 421 61.578125 C 423.011719 61.039062 425.039062 60.707031 427.074219 60.589844 C 429.105469 60.460938 431.152344 60.621094 433.214844 61.070312 Z M 433.214844 61.070312 "/><path style="fill:none;stroke-width:7;stroke-linecap:butt;stroke-linejoin:miter;stroke:#f8d210;stroke-opacity:1;stroke-miterlimit:4;" d="M -0.00239026 3.496076 L 584.393973 3.496076 " transform="matrix(-0.6591,0,0,-0.658882,423.271862,133.643344)"/><g clip-rule="nonzero" clip-path="url(#38c71236f3)"><path style=" stroke:none;fill-rule:nonzero;fill:#f8d210;fill-opacity:1;" d="M 274.285156 83.40625 C 269.625 122.769531 265.84375 126.546875 226.46875 131.207031 C 226.550781 131.21875 226.628906 131.226562 226.710938 131.234375 C 265.863281 135.882812 269.632812 139.722656 274.285156 179.007812 C 278.945312 139.640625 282.722656 135.863281 322.101562 131.207031 C 282.722656 126.546875 278.945312 122.769531 274.285156 83.40625 Z M 274.285156 83.40625 "/></g><g clip-rule="nonzero" clip-path="url(#223b37515c)"><path style=" stroke:none;fill-rule:nonzero;fill:#ffffff;fill-opacity:1;" d="M 254.921875 42.699219 L 287.460938 42.699219 L 287.460938 73.214844 L 254.921875 73.214844 Z M 254.921875 42.699219 "/></g><g style="fill:#f8d210;fill-opacity:1;"><g transform="translate(259.835134, 101.377048)"><path style="stroke:none" d="M 16.984375 -50.8125 C 19.097656 -50.039062 20.523438 -48.910156 21.265625 -47.421875 C 22.003906 -45.941406 22.234375 -44.171875 21.953125 -42.109375 C 21.753906 -40.710938 21.367188 -39.351562 20.796875 -38.03125 C 20.222656 -36.71875 19.429688 -35.53125 18.421875 -34.46875 C 17.460938 -33.414062 16.394531 -32.515625 15.21875 -31.765625 C 14.039062 -31.023438 12.734375 -30.535156 11.296875 -30.296875 C 10.960938 -30.253906 10.503906 -30.160156 9.921875 -30.015625 C 9.347656 -29.867188 8.820312 -29.769531 8.34375 -29.71875 C 8.101562 -29.675781 7.921875 -29.703125 7.796875 -29.796875 C 7.679688 -29.890625 7.503906 -30.101562 7.265625 -30.4375 C 6.878906 -30.914062 6.421875 -31.523438 5.890625 -32.265625 C 5.367188 -33.015625 5.132812 -33.4375 5.1875 -33.53125 C 5.707031 -33.875 6.316406 -34.164062 7.015625 -34.40625 C 7.710938 -34.644531 8.359375 -34.953125 8.953125 -35.328125 C 9.554688 -35.710938 9.929688 -36.289062 10.078125 -37.0625 C 9.210938 -37.007812 8.441406 -37.222656 7.765625 -37.703125 C 7.097656 -38.191406 6.5 -38.625 5.96875 -39 C 5.0625 -39.769531 4.472656 -40.753906 4.203125 -41.953125 C 3.941406 -43.148438 3.96875 -44.375 4.28125 -45.625 C 4.59375 -46.875 5.179688 -47.859375 6.046875 -48.578125 C 7.628906 -49.972656 9.34375 -50.875 11.1875 -51.28125 C 13.039062 -51.6875 14.972656 -51.53125 16.984375 -50.8125 Z M 16.984375 -50.8125 "/></g></g></g></svg>