<svg xmlns="http://www.w3.org/2000/svg" xmlns:xlink="http://www.w3.org/1999/xlink" width="700" zoomAndPan="magnify" viewBox="0 0 525 262.499992" height="350" preserveAspectRatio="xMidYMid meet" version="1.0"><defs><g/><clipPath id="6fc5073c65"><path d="M 46 155 L 524.5 155 L 524.5 160 L 46 160 Z M 46 155 " clip-rule="nonzero"/></clipPath><clipPath id="06ea92acea"><path d="M 231.523438 107.042969 L 331.503906 107.042969 L 331.503906 207.023438 L 231.523438 207.023438 Z M 231.523438 107.042969 " clip-rule="nonzero"/></clipPath></defs><g fill="#096225" fill-opacity="1"><g transform="translate(5.150126, 129.924533)"><g><path d="M 4.75 -43.21875 C 4.75 -47.019531 5.035156 -51.066406 5.609375 -55.359375 C 6.191406 -59.648438 7.03125 -63.828125 8.125 -67.890625 C 9.21875 -71.953125 10.484375 -75.609375 11.921875 -78.859375 C 13.367188 -82.117188 14.953125 -84.640625 16.671875 -86.421875 L 64.21875 -86.421875 L 64.21875 -79.6875 C 62.425781 -80.78125 59.28125 -81.816406 54.78125 -82.796875 C 50.289062 -83.773438 43.867188 -84.265625 35.515625 -84.265625 L 18.40625 -84.265625 C 16.851562 -81.148438 15.613281 -77.734375 14.6875 -74.015625 C 13.769531 -70.304688 13.09375 -66.546875 12.65625 -62.734375 C 12.226562 -58.929688 11.957031 -55.304688 11.84375 -51.859375 L 52.546875 -51.859375 L 52.546875 -45.109375 C 51.679688 -45.628906 50.15625 -46.160156 47.96875 -46.703125 C 45.78125 -47.253906 43.242188 -47.757812 40.359375 -48.21875 C 37.472656 -48.6875 34.488281 -49.046875 31.40625 -49.296875 C 28.332031 -49.554688 25.410156 -49.6875 22.640625 -49.6875 L 11.75 -49.6875 C 11.582031 -46.0625 11.539062 -42.160156 11.625 -37.984375 C 11.707031 -33.804688 11.976562 -29.570312 12.4375 -25.28125 C 12.90625 -20.988281 13.613281 -16.867188 14.5625 -12.921875 C 15.507812 -8.972656 16.789062 -5.382812 18.40625 -2.15625 L 35.515625 -2.15625 C 43.867188 -2.15625 50.289062 -2.644531 54.78125 -3.625 C 59.28125 -4.601562 62.425781 -5.640625 64.21875 -6.734375 L 64.21875 0 L 16.671875 0 C 14.953125 -1.78125 13.367188 -4.296875 11.921875 -7.546875 C 10.484375 -10.804688 9.21875 -14.46875 8.125 -18.53125 C 7.03125 -22.59375 6.191406 -26.769531 5.609375 -31.0625 C 5.035156 -35.351562 4.75 -39.40625 4.75 -43.21875 Z M 4.75 -43.21875 "/></g></g></g><g fill="#096225" fill-opacity="1"><g transform="translate(77.649951, 129.924533)"><g><path d="M 4.328125 -31.375 C 4.328125 -34.363281 4.769531 -37.296875 5.65625 -40.171875 C 6.550781 -43.054688 7.734375 -45.707031 9.203125 -48.125 C 10.671875 -50.550781 12.3125 -52.582031 14.125 -54.21875 C 15.945312 -55.863281 17.75 -56.945312 19.53125 -57.46875 L 54.453125 -57.46875 L 54.453125 -50.90625 C 52.203125 -52.050781 49.578125 -52.957031 46.578125 -53.625 C 43.585938 -54.289062 40.21875 -54.625 36.46875 -54.625 L 18.75 -54.625 C 17.082031 -53.53125 15.628906 -51.800781 14.390625 -49.4375 C 13.148438 -47.070312 12.179688 -44.363281 11.484375 -41.3125 C 10.796875 -38.257812 10.453125 -35.175781 10.453125 -32.0625 C 10.453125 -27.507812 11.226562 -23.414062 12.78125 -19.78125 C 14.34375 -16.15625 16.429688 -13.085938 19.046875 -10.578125 C 21.671875 -8.078125 24.539062 -6.164062 27.65625 -4.84375 C 30.769531 -3.519531 33.878906 -2.859375 36.984375 -2.859375 C 40.554688 -2.859375 43.507812 -3.316406 45.84375 -4.234375 C 48.175781 -5.160156 50.046875 -6.328125 51.453125 -7.734375 C 52.867188 -9.148438 53.953125 -10.546875 54.703125 -11.921875 L 56.4375 -10.96875 C 54.132812 -6.707031 50.789062 -3.671875 46.40625 -1.859375 C 42.03125 -0.046875 37.191406 0.859375 31.890625 0.859375 C 29.066406 0.859375 26.054688 0.179688 22.859375 -1.171875 C 19.660156 -2.523438 16.660156 -4.539062 13.859375 -7.21875 C 11.066406 -9.894531 8.78125 -13.25 7 -17.28125 C 5.21875 -21.3125 4.328125 -26.007812 4.328125 -31.375 Z M 4.328125 -31.375 "/></g></g></g><g fill="#096225" fill-opacity="1"><g transform="translate(146.261384, 129.924533)"><g><path d="M 3.03125 -86.421875 L 14.609375 -86.421875 C 13.453125 -85.265625 12.6875 -83.535156 12.3125 -81.234375 C 11.9375 -78.929688 11.765625 -76.335938 11.796875 -73.453125 C 11.828125 -70.578125 11.84375 -67.695312 11.84375 -64.8125 L 11.84375 -21.609375 C 11.84375 -18.722656 11.828125 -15.835938 11.796875 -12.953125 C 11.765625 -10.078125 11.9375 -7.488281 12.3125 -5.1875 C 12.6875 -2.882812 13.453125 -1.15625 14.609375 0 L 3.03125 0 C 4.175781 -1.15625 4.9375 -2.882812 5.3125 -5.1875 C 5.6875 -7.488281 5.859375 -10.078125 5.828125 -12.953125 C 5.804688 -15.835938 5.796875 -18.722656 5.796875 -21.609375 L 5.796875 -64.8125 C 5.796875 -67.695312 5.804688 -70.578125 5.828125 -73.453125 C 5.859375 -76.335938 5.6875 -78.929688 5.3125 -81.234375 C 4.9375 -83.535156 4.175781 -85.265625 3.03125 -86.421875 Z M 3.03125 -86.421875 "/></g></g></g><g fill="#096225" fill-opacity="1"><g transform="translate(173.049758, 129.924533)"><g><path d="M 4.328125 -8.203125 C 4.328125 -11.429688 5.046875 -14.425781 6.484375 -17.1875 C 7.921875 -19.957031 9.847656 -22.46875 12.265625 -24.71875 C 14.691406 -26.96875 17.398438 -28.953125 20.390625 -30.671875 C 23.390625 -32.398438 26.472656 -33.898438 29.640625 -35.171875 C 32.804688 -36.441406 35.84375 -37.453125 38.75 -38.203125 C 41.664062 -38.953125 44.21875 -39.441406 46.40625 -39.671875 C 46.175781 -42.546875 45.554688 -45.234375 44.546875 -47.734375 C 43.535156 -50.242188 41.921875 -52.273438 39.703125 -53.828125 C 37.492188 -55.390625 34.425781 -56.171875 30.5 -56.171875 C 27.050781 -56.171875 23.785156 -55.519531 20.703125 -54.21875 C 17.617188 -52.925781 14.878906 -51.382812 12.484375 -49.59375 C 10.097656 -47.8125 8.15625 -46.175781 6.65625 -44.6875 L 6.65625 -52.109375 C 10.75 -54.128906 14.519531 -55.6875 17.96875 -56.78125 C 21.425781 -57.875 25.171875 -58.421875 29.203125 -58.421875 C 34.566406 -58.421875 38.976562 -57.453125 42.4375 -55.515625 C 45.894531 -53.585938 48.457031 -50.96875 50.125 -47.65625 C 51.789062 -44.34375 52.625 -40.554688 52.625 -36.296875 L 52.625 -21.6875 C 52.625 -18.8125 52.609375 -15.929688 52.578125 -13.046875 C 52.554688 -10.171875 52.734375 -7.578125 53.109375 -5.265625 C 53.484375 -2.960938 54.242188 -1.238281 55.390625 -0.09375 L 20.734375 -0.09375 C 18.316406 -0.09375 16.113281 -0.078125 14.125 -0.046875 C 12.132812 -0.015625 10.40625 -0.1875 8.9375 -0.5625 C 7.46875 -0.9375 6.332031 -1.695312 5.53125 -2.84375 C 4.726562 -4 4.328125 -5.785156 4.328125 -8.203125 Z M 46.578125 -37.421875 C 43.984375 -37.128906 41.101562 -36.507812 37.9375 -35.5625 C 34.769531 -34.613281 31.597656 -33.359375 28.421875 -31.796875 C 25.253906 -30.242188 22.332031 -28.429688 19.65625 -26.359375 C 16.976562 -24.285156 14.832031 -22.007812 13.21875 -19.53125 C 11.601562 -17.050781 10.796875 -14.375 10.796875 -11.5 C 10.796875 -6.019531 13.332031 -3.28125 18.40625 -3.28125 L 46.578125 -3.28125 L 46.578125 -34.65625 C 46.578125 -35.113281 46.578125 -35.570312 46.578125 -36.03125 C 46.578125 -36.5 46.578125 -36.960938 46.578125 -37.421875 Z M 46.578125 -37.421875 "/></g></g></g><g fill="#096225" fill-opacity="1"><g transform="translate(240.624235, 129.924533)"><g><path d="M 0 -55.65625 C 1.84375 -55.882812 3.5 -56.734375 4.96875 -58.203125 C 6.4375 -59.671875 7.703125 -61.441406 8.765625 -63.515625 C 9.835938 -65.585938 10.644531 -67.644531 11.1875 -69.6875 C 11.738281 -71.738281 12.015625 -73.457031 12.015625 -74.84375 L 12.359375 -74.84375 L 12.359375 -56.609375 L 17.71875 -56.609375 L 17.71875 -55.3125 L 12.359375 -55.3125 L 12.359375 -8.203125 C 12.359375 -7.171875 12.5 -6.0625 12.78125 -4.875 C 13.070312 -3.695312 13.5625 -2.691406 14.25 -1.859375 C 14.945312 -1.023438 15.898438 -0.609375 17.109375 -0.609375 C 17.859375 -0.609375 18.519531 -0.691406 19.09375 -0.859375 C 19.675781 -1.035156 20.253906 -1.238281 20.828125 -1.46875 L 21.09375 -0.6875 C 19.476562 0.34375 17.632812 0.859375 15.5625 0.859375 C 14.0625 0.859375 12.585938 0.414062 11.140625 -0.46875 C 9.703125 -1.363281 8.519531 -2.71875 7.59375 -4.53125 C 6.675781 -6.351562 6.21875 -8.644531 6.21875 -11.40625 L 6.21875 -55.3125 L 0 -55.3125 Z M 0 -55.65625 "/></g></g></g><g fill="#096225" fill-opacity="1"><g transform="translate(269.140837, 129.924533)"><g><path d="M 8.46875 -77.265625 C 7.082031 -77.265625 5.898438 -77.753906 4.921875 -78.734375 C 3.941406 -79.710938 3.453125 -80.894531 3.453125 -82.28125 C 3.453125 -83.65625 3.941406 -84.832031 4.921875 -85.8125 C 5.898438 -86.789062 7.082031 -87.28125 8.46875 -87.28125 C 10.425781 -87.28125 11.789062 -86.53125 12.5625 -85.03125 C 13.34375 -83.539062 13.734375 -81.957031 13.734375 -80.28125 C 13.734375 -73.945312 11.054688 -69.800781 5.703125 -67.84375 L 5.703125 -68.09375 C 6.859375 -68.84375 7.820312 -69.75 8.59375 -70.8125 C 9.375 -71.882812 9.734375 -73.054688 9.671875 -74.328125 C 9.671875 -75.648438 9.269531 -76.628906 8.46875 -77.265625 Z M 8.46875 -77.265625 "/></g></g></g><g fill="#096225" fill-opacity="1"><g transform="translate(293.423295, 129.924533)"><g><path d="M 4.328125 -29.46875 C 4.328125 -33.101562 4.898438 -36.632812 6.046875 -40.0625 C 7.203125 -43.488281 8.945312 -46.582031 11.28125 -49.34375 C 13.613281 -52.113281 16.59375 -54.300781 20.21875 -55.90625 C 23.851562 -57.519531 28.117188 -58.328125 33.015625 -58.328125 C 37.679688 -58.328125 41.867188 -57.332031 45.578125 -55.34375 C 49.296875 -53.363281 52.234375 -50.6875 54.390625 -47.3125 C 56.554688 -43.945312 57.640625 -40.128906 57.640625 -35.859375 C 57.640625 -34.941406 57.582031 -33.945312 57.46875 -32.875 C 57.351562 -31.8125 57.148438 -30.90625 56.859375 -30.15625 C 56.578125 -29.40625 56.203125 -29.03125 55.734375 -29.03125 L 10.890625 -29.03125 C 10.941406 -24.019531 11.613281 -19.800781 12.90625 -16.375 C 14.207031 -12.945312 15.953125 -10.195312 18.140625 -8.125 C 20.335938 -6.050781 22.773438 -4.550781 25.453125 -3.625 C 28.128906 -2.707031 30.851562 -2.25 33.625 -2.25 C 36.675781 -2.25 39.613281 -2.707031 42.4375 -3.625 C 45.257812 -4.550781 47.691406 -5.789062 49.734375 -7.34375 C 51.773438 -8.894531 53.144531 -10.59375 53.84375 -12.4375 L 56.171875 -11.578125 C 53.804688 -7.890625 50.664062 -4.894531 46.75 -2.59375 C 42.832031 -0.289062 38.195312 0.859375 32.84375 0.859375 C 28.289062 0.859375 24.242188 0.0078125 20.703125 -1.6875 C 17.160156 -3.382812 14.160156 -5.6875 11.703125 -8.59375 C 9.253906 -11.507812 7.410156 -14.765625 6.171875 -18.359375 C 4.941406 -21.960938 4.328125 -25.664062 4.328125 -29.46875 Z M 10.96875 -31.203125 L 51.421875 -31.203125 C 51.421875 -31.203125 51.492188 -31.804688 51.640625 -33.015625 C 51.785156 -34.222656 51.84375 -35.773438 51.8125 -37.671875 C 51.78125 -39.578125 51.488281 -41.582031 50.9375 -43.6875 C 50.394531 -45.789062 49.460938 -47.789062 48.140625 -49.6875 C 46.816406 -51.59375 44.941406 -53.148438 42.515625 -54.359375 C 40.097656 -55.566406 36.957031 -56.171875 33.09375 -56.171875 C 29.695312 -56.171875 26.660156 -55.476562 23.984375 -54.09375 C 21.304688 -52.71875 19.03125 -50.847656 17.15625 -48.484375 C 15.28125 -46.117188 13.820312 -43.453125 12.78125 -40.484375 C 11.75 -37.515625 11.144531 -34.421875 10.96875 -31.203125 Z M 10.96875 -31.203125 "/></g></g></g><g fill="#096225" fill-opacity="1"><g transform="translate(364.540643, 129.924533)"><g><path d="M 5.796875 -35.859375 C 5.796875 -38.742188 5.804688 -41.625 5.828125 -44.5 C 5.859375 -47.382812 5.6875 -49.976562 5.3125 -52.28125 C 4.9375 -54.582031 4.175781 -56.3125 3.03125 -57.46875 L 11.84375 -57.46875 L 11.84375 -10.546875 C 12.757812 -12.210938 13.863281 -14.515625 15.15625 -17.453125 C 16.457031 -20.390625 17.914062 -23.660156 19.53125 -27.265625 C 21.144531 -30.867188 22.914062 -34.484375 24.84375 -38.109375 C 26.769531 -41.742188 28.800781 -45.085938 30.9375 -48.140625 C 33.070312 -51.191406 35.316406 -53.648438 37.671875 -55.515625 C 40.035156 -57.390625 42.457031 -58.328125 44.9375 -58.328125 C 47.125 -58.328125 48.734375 -57.691406 49.765625 -56.421875 C 50.804688 -55.160156 51.5 -53.40625 51.84375 -51.15625 C 52.195312 -48.914062 52.375 -46.269531 52.375 -43.21875 L 52.375 -21.609375 C 52.375 -18.722656 52.359375 -15.835938 52.328125 -12.953125 C 52.296875 -10.078125 52.46875 -7.488281 52.84375 -5.1875 C 53.21875 -2.882812 53.984375 -1.15625 55.140625 0 L 43.5625 0 C 44.707031 -1.15625 45.46875 -2.882812 45.84375 -5.1875 C 46.21875 -7.488281 46.390625 -10.078125 46.359375 -12.953125 C 46.335938 -15.835938 46.328125 -18.722656 46.328125 -21.609375 L 46.328125 -47.875 C 46.328125 -47.875 46.328125 -48.191406 46.328125 -48.828125 C 46.328125 -49.460938 46.207031 -50.179688 45.96875 -50.984375 C 45.738281 -51.796875 45.304688 -52.515625 44.671875 -53.140625 C 44.046875 -53.773438 43.128906 -54.09375 41.921875 -54.09375 C 40.015625 -54.09375 38.082031 -53.097656 36.125 -51.109375 C 34.164062 -49.128906 32.191406 -46.507812 30.203125 -43.25 C 28.210938 -40 26.28125 -36.414062 24.40625 -32.5 C 22.539062 -28.582031 20.742188 -24.660156 19.015625 -20.734375 C 17.285156 -16.816406 15.6875 -13.226562 14.21875 -9.96875 C 12.75 -6.71875 11.46875 -4.097656 10.375 -2.109375 C 9.28125 -0.128906 8.382812 0.859375 7.6875 0.859375 C 6.9375 0.859375 6.429688 0.53125 6.171875 -0.125 C 5.921875 -0.789062 5.796875 -1.46875 5.796875 -2.15625 Z M 5.796875 -35.859375 "/></g></g></g><g fill="#096225" fill-opacity="1"><g transform="translate(431.855878, 129.924533)"><g><path d="M 24.890625 0.859375 C 22.242188 0.859375 19.625 0.472656 17.03125 -0.296875 C 14.4375 -1.078125 12.070312 -2.226562 9.9375 -3.75 C 7.800781 -5.28125 6.113281 -7.109375 4.875 -9.234375 C 3.644531 -11.367188 3.03125 -13.765625 3.03125 -16.421875 C 3.03125 -19.015625 3.585938 -21.332031 4.703125 -23.375 C 5.828125 -25.414062 7.335938 -26.941406 9.234375 -27.953125 C 11.140625 -28.960938 13.25 -29.238281 15.5625 -28.78125 C 13.132812 -27.164062 11.515625 -25.378906 10.703125 -23.421875 C 9.898438 -21.460938 9.5 -19.210938 9.5 -16.671875 C 9.5 -13.566406 10.191406 -10.859375 11.578125 -8.546875 C 12.960938 -6.242188 14.820312 -4.472656 17.15625 -3.234375 C 19.488281 -1.992188 22.035156 -1.375 24.796875 -1.375 C 27.859375 -1.375 30.726562 -2.082031 33.40625 -3.5 C 36.082031 -4.914062 38.238281 -6.914062 39.875 -9.5 C 41.519531 -12.09375 42.34375 -15.148438 42.34375 -18.671875 C 42.34375 -21.953125 41.679688 -24.710938 40.359375 -26.953125 C 39.035156 -29.203125 37.273438 -31.078125 35.078125 -32.578125 C 32.890625 -34.078125 30.484375 -35.390625 27.859375 -36.515625 C 25.242188 -37.640625 22.625 -38.691406 20 -39.671875 C 17.382812 -40.648438 14.976562 -41.710938 12.78125 -42.859375 C 10.59375 -44.015625 8.835938 -45.410156 7.515625 -47.046875 C 6.191406 -48.691406 5.53125 -50.753906 5.53125 -53.234375 C 5.53125 -55.023438 5.832031 -56.175781 6.4375 -56.6875 C 7.039062 -57.207031 7.457031 -57.46875 7.6875 -57.46875 L 46.75 -57.46875 L 46.75 -51.59375 C 44.507812 -52.75 42.046875 -53.65625 39.359375 -54.3125 C 36.679688 -54.976562 33.15625 -55.3125 28.78125 -55.3125 L 10.03125 -55.3125 C 9.101562 -55.3125 8.550781 -55.019531 8.375 -54.4375 C 8.207031 -53.863281 8.125 -53.460938 8.125 -53.234375 C 8.125 -51.796875 9.316406 -50.425781 11.703125 -49.125 C 14.097656 -47.832031 17.140625 -46.582031 20.828125 -45.375 C 24.285156 -44.28125 27.671875 -43.066406 30.984375 -41.734375 C 34.296875 -40.410156 37.304688 -38.828125 40.015625 -36.984375 C 42.722656 -35.140625 44.882812 -32.878906 46.5 -30.203125 C 48.113281 -27.523438 48.921875 -24.253906 48.921875 -20.390625 C 48.921875 -15.898438 47.796875 -12.066406 45.546875 -8.890625 C 43.296875 -5.722656 40.351562 -3.304688 36.71875 -1.640625 C 33.09375 0.0234375 29.148438 0.859375 24.890625 0.859375 Z M 24.890625 0.859375 "/></g></g></g><g clip-path="url(#6fc5073c65)"><path stroke-linecap="butt" transform="matrix(-2.438546, 0, 0, -2.438546, 524.483842, 159.985475)" fill="none" stroke-linejoin="miter" d="M -0.000218702 1.000022 L 194.866487 1.000022 " stroke="#096225" stroke-width="2" stroke-opacity="1" stroke-miterlimit="4"/></g><g clip-path="url(#06ea92acea)"><path fill="#096225" d="M 282.007812 107.042969 C 277.089844 148.617188 273.101562 152.609375 231.523438 157.527344 C 231.609375 157.539062 231.695312 157.546875 231.78125 157.558594 L 231.785156 157.558594 C 273.117188 162.464844 277.097656 166.523438 282.007812 208.011719 C 286.929688 166.4375 290.917969 162.449219 332.496094 157.527344 C 290.917969 152.609375 286.929688 148.617188 282.007812 107.042969 Z M 282.007812 107.042969 " fill-opacity="1" fill-rule="nonzero"/></g></svg>